<svg version="1.1" viewBox="0.0 0.0 672.0 1440.0" fill="none" stroke="none" stroke-linecap="square" stroke-miterlimit="10" xmlns:xlink="http://www.w3.org/1999/xlink" xmlns="http://www.w3.org/2000/svg"><clipPath id="p.0"><path d="m0 0l672.0 0l0 1440.0l-672.0 0l0 -1440.0z" clip-rule="nonzero"/></clipPath><g clip-path="url(#p.0)"><path fill="#000000" fill-opacity="0.0" d="m0 0l672.0 0l0 1440.0l-672.0 0z" fill-rule="evenodd"/><path fill="#291d45" d="m2.3622047E-6 0l672.0 0l0 1440.0l-672.0 0z" fill-rule="evenodd"/><path stroke="#ffffff" stroke-width="3.0" stroke-linejoin="round" stroke-linecap="butt" d="m2.3622047E-6 0l672.0 0l0 1440.0l-672.0 0z" fill-rule="evenodd"/><path fill="#000000" fill-opacity="0.0" d="m180.07317 278.53348l-1.5748138 1112.7245" fill-rule="evenodd"/><path stroke="#ffffff" stroke-width="8.0" stroke-linejoin="round" stroke-linecap="butt" d="m180.07317 278.53348l-1.5748138 1112.7245" fill-rule="evenodd"/><path fill="#000000" fill-opacity="0.0" d="m80.27264 553.44244l0 -263.65356l59.55906 0l0 263.65356z" fill-rule="evenodd"/><path fill="#ffffff" d="m108.70514 509.6057q0.65625 0 0.953125 0.1875q0.296875 0.171875 0.296875 0.453125l0 2.4375q0.671875 -0.671875 1.5 -0.921875q0.8125 -0.265625 1.703125 -0.265625q1.46875 0 2.609375 0.46875q1.125 0.46875 1.921875 1.34375q0.78125 0.875 1.203125 2.09375q0.40625 1.203125 0.40625 2.671875q0 1.046875 -0.265625 1.984375q-0.28125 0.921875 -0.703125 1.4375q0.34375 0.34375 0.78125 0.5625q0.4375 0.203125 1.0 0.203125q0.65625 0 1.09375 -0.609375q0.4375 -0.609375 0.46875 -1.625l0.1875 -4.4375q0.046875 -1.265625 0.359375 -2.328125q0.296875 -1.0625 0.875 -1.828125q0.578125 -0.78125 1.421875 -1.203125q0.84375 -0.4375 1.953125 -0.4375q1.171875 0 2.21875 0.5q1.0625 0.484375 1.859375 1.5q0.8125 1.0 1.265625 2.5625q0.46875 1.5625 0.46875 3.703125q0 2.0625 -0.359375 3.5q-0.34375 1.4375 -0.953125 2.375q-0.59375 0.921875 -1.4375 1.34375q-0.84375 0.40625 -1.8125 0.40625q-0.625 0 -1.21875 -0.140625q-0.578125 -0.15625 -1.109375 -0.46875q-0.53125 -0.3125 -1.0 -0.765625q-0.484375 -0.46875 -0.96875 -1.078125q-0.46875 0.921875 -1.1875 1.375q-0.71875 0.4375 -1.546875 0.4375q-1.140625 0 -2.046875 -0.46875q-0.90625 -0.46875 -1.625 -1.171875q-0.703125 0.578125 -1.578125 0.921875q-0.875 0.34375 -2.125 0.34375q-1.453125 0 -2.609375 -0.484375q-1.15625 -0.5 -1.9375 -1.359375q-0.796875 -0.875 -1.21875 -2.09375q-0.421875 -1.21875 -0.421875 -2.65625q0 -0.765625 0.09375 -1.4375q0.078125 -0.671875 0.21875 -1.265625l0 -5.125q0 -0.328125 0.3125 -0.484375q0.3125 -0.15625 0.953125 -0.15625zm4.46875 4.859375q-1.734375 0 -2.703125 0.953125q-0.96875 0.953125 -0.96875 2.71875q0 0.90625 0.3125 1.578125q0.296875 0.671875 0.828125 1.109375q0.515625 0.4375 1.203125 0.65625q0.6875 0.21875 1.453125 0.21875q1.671875 0 2.640625 -0.953125q0.953125 -0.953125 0.953125 -2.671875q0 -0.921875 -0.28125 -1.59375q-0.296875 -0.6875 -0.8125 -1.125q-0.515625 -0.453125 -1.1875 -0.671875q-0.6875 -0.21875 -1.4375 -0.21875zm13.46875 -1.5625q-1.09375 0 -1.6875 0.90625q-0.59375 0.890625 -0.640625 2.421875l-0.15625 4.390625q0.484375 0.609375 0.90625 1.0q0.421875 0.375 0.8125 0.609375q0.390625 0.21875 0.765625 0.3125q0.375 0.078125 0.765625 0.078125q1.234375 0 1.859375 -1.234375q0.640625 -1.25 0.640625 -3.484375q0 -1.40625 -0.28125 -2.359375q-0.265625 -0.953125 -0.71875 -1.53125q-0.453125 -0.59375 -1.046875 -0.84375q-0.578125 -0.265625 -1.21875 -0.265625zm-10.484375 -22.929993q2.234375 0 4.015625 0.484375q1.765625 0.484375 3.0 1.421875q1.234375 0.921875 1.90625 2.3125q0.671875 1.375 0.671875 3.140625q0 0.75 -0.15625 1.40625q-0.140625 0.640625 -0.453125 1.25q-0.328125 0.609375 -0.8125 1.21875q-0.5 0.59375 -1.171875 1.28125l8.5 0q0.15625 0 0.265625 0.078125q0.109375 0.078125 0.1875 0.25q0.078125 0.15625 0.109375 0.46875q0.046875 0.296875 0.046875 0.765625q0 0.453125 -0.046875 0.765625q-0.03125 0.296875 -0.109375 0.484375q-0.078125 0.171875 -0.1875 0.234375q-0.109375 0.0625 -0.265625 0.0625l-23.71875 0q-0.171875 0 -0.28125 -0.046875q-0.109375 -0.0625 -0.171875 -0.234375q-0.078125 -0.171875 -0.109375 -0.4375q-0.03125 -0.265625 -0.03125 -0.640625q0 -0.390625 0.03125 -0.640625q0.03125 -0.265625 0.109375 -0.4375q0.0625 -0.171875 0.171875 -0.234375q0.109375 -0.0625 0.28125 -0.0625l2.28125 0q-0.796875 -0.78125 -1.375 -1.484375q-0.59375 -0.71875 -0.96875 -1.4375q-0.390625 -0.734375 -0.59375 -1.5q-0.203125 -0.765625 -0.203125 -1.625q0 -1.84375 0.71875 -3.140625q0.71875 -1.3125 1.96875 -2.125q1.234375 -0.828125 2.890625 -1.203125q1.65625 -0.375 3.5 -0.375zm0.359375 3.28125q-1.296875 0 -2.515625 0.203125q-1.21875 0.203125 -2.15625 0.6875q-0.953125 0.46875 -1.515625 1.28125q-0.5625 0.8125 -0.5625 2.015625q0 0.609375 0.1875 1.203125q0.171875 0.578125 0.5625 1.1875q0.375 0.59375 1.015625 1.265625q0.625 0.65625 1.546875 1.390625l6.765625 0q1.5625 -1.28125 2.390625 -2.4375q0.828125 -1.15625 0.828125 -2.421875q0 -1.171875 -0.5625 -2.0q-0.5625 -0.84375 -1.5 -1.359375q-0.953125 -0.515625 -2.125 -0.765625q-1.171875 -0.25 -2.359375 -0.25zm7.15625 -16.624084q0.546875 0 0.875 0.078125q0.3125 0.0625 0.46875 0.21875q0.15625 0.15625 0.28125 0.453125q0.125 0.296875 0.203125 0.6875q0.09375 0.390625 0.15625 0.828125q0.0625 0.4375 0.0625 0.859375q0 1.328125 -0.34375 2.28125q-0.359375 0.9375 -1.0625 1.546875q-0.71875 0.59375 -1.796875 0.875q-1.09375 0.265625 -2.5625 0.265625l-9.921875 0l0 2.375q0 0.28125 -0.296875 0.453125q-0.3125 0.171875 -0.984375 0.171875q-0.359375 0 -0.609375 -0.046875q-0.25 -0.046875 -0.40625 -0.125q-0.15625 -0.078125 -0.21875 -0.1875q-0.078125 -0.125 -0.078125 -0.28125l0 -2.359375l-4.03125 0q-0.140625 0 -0.25 -0.0625q-0.109375 -0.0625 -0.1875 -0.234375q-0.09375 -0.1875 -0.125 -0.484375q-0.046875 -0.3125 -0.046875 -0.765625q0 -0.46875 0.046875 -0.765625q0.03125 -0.3125 0.125 -0.484375q0.078125 -0.171875 0.1875 -0.234375q0.109375 -0.078125 0.25 -0.078125l4.03125 0l0 -4.359375q0 -0.15625 0.078125 -0.265625q0.0625 -0.109375 0.21875 -0.1875q0.15625 -0.09375 0.40625 -0.125q0.25 -0.046875 0.609375 -0.046875q0.671875 0 0.984375 0.171875q0.296875 0.171875 0.296875 0.453125l0 4.359375l9.46875 0q1.75 0 2.65625 -0.515625q0.890625 -0.53125 0.890625 -1.859375q0 -0.4375 -0.078125 -0.78125q-0.09375 -0.34375 -0.1875 -0.609375q-0.09375 -0.265625 -0.171875 -0.453125q-0.09375 -0.1875 -0.09375 -0.328125q0 -0.09375 0.046875 -0.171875q0.046875 -0.09375 0.1875 -0.140625q0.125 -0.046875 0.359375 -0.078125q0.21875 -0.046875 0.5625 -0.046875zm-7.8125 -10.571381q0.734375 0 1.015625 0.171875q0.28125 0.171875 0.28125 0.484375l0 7.890625q0 0.34375 -0.28125 0.515625q-0.296875 0.171875 -1.015625 0.171875q-0.71875 0 -1.0 -0.171875q-0.28125 -0.171875 -0.28125 -0.515625l0 -7.890625q0 -0.140625 0.0625 -0.265625q0.046875 -0.125 0.21875 -0.203125q0.15625 -0.09375 0.40625 -0.140625q0.234375 -0.046875 0.59375 -0.046875zm2.546875 -18.553467q1.6875 0 3.03125 0.59375q1.34375 0.578125 2.3125 1.671875q0.96875 1.09375 1.484375 2.703125q0.515625 1.59375 0.515625 3.625q0 1.21875 -0.203125 2.296875q-0.1875 1.0625 -0.453125 1.890625q-0.28125 0.828125 -0.578125 1.375q-0.296875 0.546875 -0.421875 0.6875q-0.140625 0.140625 -0.265625 0.21875q-0.140625 0.078125 -0.328125 0.140625q-0.1875 0.046875 -0.453125 0.078125q-0.28125 0.03125 -0.671875 0.03125q-0.6875 0 -0.953125 -0.125q-0.265625 -0.140625 -0.265625 -0.390625q0 -0.171875 0.3125 -0.671875q0.296875 -0.5 0.65625 -1.28125q0.34375 -0.78125 0.640625 -1.828125q0.296875 -1.046875 0.296875 -2.328125q0 -1.25 -0.3125 -2.1875q-0.328125 -0.953125 -0.90625 -1.59375q-0.59375 -0.640625 -1.390625 -0.953125q-0.796875 -0.328125 -1.75 -0.328125q-1.03125 0 -1.859375 0.40625q-0.828125 0.40625 -1.4375 1.1875q-0.609375 0.78125 -0.921875 1.921875q-0.328125 1.140625 -0.328125 2.59375l0 2.328125q0 0.140625 -0.0625 0.296875q-0.0625 0.140625 -0.21875 0.25q-0.15625 0.09375 -0.390625 0.15625q-0.25 0.0625 -0.640625 0.0625q-0.359375 0 -0.59375 -0.046875q-0.234375 -0.0625 -0.375 -0.15625q-0.15625 -0.109375 -0.21875 -0.234375q-0.0625 -0.140625 -0.0625 -0.3125l0 -2.125q0 -1.25 -0.3125 -2.234375q-0.328125 -1.0 -0.921875 -1.6875q-0.609375 -0.6875 -1.453125 -1.046875q-0.84375 -0.375 -1.875 -0.375q-0.765625 0 -1.453125 0.25q-0.6875 0.234375 -1.1875 0.734375q-0.515625 0.484375 -0.8125 1.25q-0.296875 0.765625 -0.296875 1.765625q0 1.09375 0.34375 2.015625q0.328125 0.90625 0.703125 1.625q0.375 0.71875 0.703125 1.1875q0.328125 0.46875 0.328125 0.65625q0 0.140625 -0.046875 0.25q-0.046875 0.09375 -0.1875 0.15625q-0.140625 0.0625 -0.390625 0.09375q-0.25 0.03125 -0.671875 0.03125q-0.28125 0 -0.5 -0.015625q-0.21875 -0.015625 -0.375 -0.078125q-0.15625 -0.0625 -0.28125 -0.125q-0.140625 -0.078125 -0.3125 -0.25q-0.1875 -0.1875 -0.53125 -0.734375q-0.34375 -0.546875 -0.671875 -1.34375q-0.328125 -0.8125 -0.546875 -1.859375q-0.234375 -1.046875 -0.234375 -2.25q0 -1.703125 0.4375 -2.984375q0.421875 -1.28125 1.21875 -2.140625q0.796875 -0.859375 1.90625 -1.28125q1.09375 -0.4375 2.4375 -0.4375q1.15625 0 2.15625 0.3125q0.984375 0.296875 1.75 0.890625q0.75 0.578125 1.296875 1.4375q0.53125 0.84375 0.75 1.953125l0.03125 0q0.125 -1.265625 0.625 -2.3125q0.5 -1.046875 1.265625 -1.796875q0.75 -0.765625 1.765625 -1.1875q1.0 -0.421875 2.15625 -0.421875zm4.921875 -9.248627q1.34375 0 1.796875 0.453125q0.4375 0.4375 0.4375 1.609375q0 1.125 -0.4375 1.5625q-0.4375 0.4375 -1.734375 0.4375q-1.34375 0 -1.78125 -0.4375q-0.453125 -0.453125 -0.453125 -1.625q0 -1.140625 0.4375 -1.5625q0.4375 -0.4375 1.734375 -0.4375zm-5.796875 -20.180298q1.96875 0 3.5 0.671875q1.53125 0.65625 2.578125 1.859375q1.046875 1.203125 1.59375 2.875q0.546875 1.671875 0.546875 3.71875q0 1.125 -0.171875 2.140625q-0.15625 1.015625 -0.390625 1.8125q-0.234375 0.796875 -0.453125 1.3125q-0.234375 0.5 -0.359375 0.640625q-0.140625 0.140625 -0.25 0.203125q-0.109375 0.0625 -0.265625 0.109375q-0.171875 0.046875 -0.40625 0.0625q-0.25 0.015625 -0.59375 0.015625q-0.3125 0 -0.5625 -0.03125q-0.265625 -0.03125 -0.421875 -0.09375q-0.171875 -0.078125 -0.234375 -0.1875q-0.078125 -0.109375 -0.078125 -0.234375q0 -0.1875 0.234375 -0.578125q0.234375 -0.40625 0.515625 -1.078125q0.265625 -0.671875 0.515625 -1.65625q0.234375 -0.984375 0.234375 -2.34375q0 -1.265625 -0.296875 -2.328125q-0.296875 -1.0625 -0.9375 -1.828125q-0.640625 -0.765625 -1.609375 -1.1875q-0.984375 -0.4375 -2.375 -0.4375q-1.171875 0 -2.0625 0.375q-0.90625 0.359375 -1.5 1.125q-0.59375 0.765625 -0.875 1.9375q-0.296875 1.171875 -0.296875 2.796875q0 1.140625 0.109375 1.984375q0.109375 0.828125 0.109375 1.53125q0 0.53125 -0.234375 0.765625q-0.25 0.21875 -0.953125 0.21875l-9.953125 0q-0.625 0 -0.921875 -0.28125q-0.296875 -0.296875 -0.296875 -0.84375l0 -10.8125q0 -0.15625 0.09375 -0.296875q0.078125 -0.140625 0.25 -0.234375q0.15625 -0.09375 0.421875 -0.140625q0.265625 -0.046875 0.625 -0.046875q0.6875 0 1.0625 0.1875q0.375 0.1875 0.375 0.53125l0 9.109375l6.859375 0q-0.09375 -0.65625 -0.109375 -1.34375q-0.03125 -0.6875 -0.03125 -1.59375q0 -2.09375 0.5 -3.65625q0.5 -1.578125 1.421875 -2.625q0.90625 -1.046875 2.21875 -1.578125q1.296875 -0.546875 2.875 -0.546875zm-1.671875 -12.795502q0.734375 0 1.015625 0.171875q0.28125 0.171875 0.28125 0.484375l0 7.890625q0 0.34375 -0.28125 0.515625q-0.296875 0.171875 -1.015625 0.171875q-0.71875 0 -1.0 -0.171875q-0.28125 -0.171875 -0.28125 -0.515625l0 -7.890625q0 -0.140625 0.0625 -0.265625q0.046875 -0.125 0.21875 -0.203125q0.15625 -0.09375 0.40625 -0.140625q0.234375 -0.046875 0.59375 -0.046875zm7.8125 -13.022217q0.546875 0 0.875 0.078125q0.3125 0.0625 0.46875 0.21875q0.15625 0.15625 0.28125 0.453125q0.125 0.296875 0.203125 0.6875q0.09375 0.390625 0.15625 0.828125q0.0625 0.4375 0.0625 0.859375q0 1.328125 -0.34375 2.28125q-0.359375 0.9375 -1.0625 1.546875q-0.71875 0.59375 -1.796875 0.875q-1.09375 0.265625 -2.5625 0.265625l-9.921875 0l0 2.375q0 0.28125 -0.296875 0.453125q-0.3125 0.171875 -0.984375 0.171875q-0.359375 0 -0.609375 -0.046875q-0.25 -0.046875 -0.40625 -0.125q-0.15625 -0.078125 -0.21875 -0.1875q-0.078125 -0.125 -0.078125 -0.28125l0 -2.359375l-4.03125 0q-0.140625 0 -0.25 -0.0625q-0.109375 -0.0625 -0.1875 -0.234375q-0.09375 -0.1875 -0.125 -0.484375q-0.046875 -0.3125 -0.046875 -0.765625q0 -0.46875 0.046875 -0.765625q0.03125 -0.3125 0.125 -0.484375q0.078125 -0.171875 0.1875 -0.234375q0.109375 -0.078125 0.25 -0.078125l4.03125 0l0 -4.359375q0 -0.15625 0.078125 -0.265625q0.0625 -0.109375 0.21875 -0.1875q0.15625 -0.09375 0.40625 -0.125q0.25 -0.046875 0.609375 -0.046875q0.671875 0 0.984375 0.171875q0.296875 0.171875 0.296875 0.453125l0 4.359375l9.46875 0q1.75 0 2.65625 -0.515625q0.890625 -0.53125 0.890625 -1.859375q0 -0.4375 -0.078125 -0.78125q-0.09375 -0.34375 -0.1875 -0.609375q-0.09375 -0.265625 -0.171875 -0.453125q-0.09375 -0.1875 -0.09375 -0.328125q0 -0.09375 0.046875 -0.171875q0.046875 -0.09375 0.1875 -0.140625q0.125 -0.046875 0.359375 -0.078125q0.21875 -0.046875 0.5625 -0.046875zm1.25 -18.667084q0.140625 0 0.25 0.0625q0.109375 0.0625 0.1875 0.234375q0.0625 0.171875 0.09375 0.453125q0.046875 0.265625 0.046875 0.65625q0 0.4375 -0.046875 0.71875q-0.03125 0.265625 -0.09375 0.4375q-0.078125 0.15625 -0.1875 0.21875q-0.109375 0.046875 -0.25 0.046875l-2.25 0q1.609375 1.453125 2.34375 2.875q0.734375 1.40625 0.734375 2.859375q0 1.703125 -0.5625 2.875q-0.578125 1.15625 -1.546875 1.875q-0.96875 0.703125 -2.25 1.015625q-1.296875 0.3125 -3.15625 0.3125l-10.296875 0q-0.15625 0 -0.25 -0.0625q-0.109375 -0.0625 -0.1875 -0.25q-0.09375 -0.1875 -0.125 -0.484375q-0.03125 -0.3125 -0.03125 -0.765625q0 -0.453125 0.03125 -0.75q0.03125 -0.3125 0.125 -0.484375q0.078125 -0.1875 0.1875 -0.25q0.09375 -0.078125 0.25 -0.078125l9.890625 0q1.484375 0 2.390625 -0.21875q0.890625 -0.21875 1.53125 -0.65625q0.625 -0.453125 0.96875 -1.125q0.34375 -0.6875 0.34375 -1.59375q0 -1.171875 -0.828125 -2.328125q-0.828125 -1.15625 -2.4375 -2.46875l-11.859375 0q-0.15625 0 -0.25 -0.0625q-0.109375 -0.0625 -0.1875 -0.25q-0.09375 -0.1875 -0.125 -0.484375q-0.03125 -0.296875 -0.03125 -0.765625q0 -0.453125 0.03125 -0.75q0.03125 -0.3125 0.125 -0.46875q0.078125 -0.171875 0.1875 -0.25q0.09375 -0.09375 0.25 -0.09375l16.984375 0zm-15.875 -15.684631q0.40625 0 0.703125 0.015625q0.28125 0.015625 0.4375 0.078125q0.15625 0.046875 0.25 0.140625q0.078125 0.078125 0.078125 0.234375q0 0.15625 -0.078125 0.375q-0.09375 0.203125 -0.171875 0.484375q-0.09375 0.265625 -0.15625 0.609375q-0.078125 0.34375 -0.078125 0.734375q0 0.46875 0.1875 0.921875q0.1875 0.453125 0.625 0.96875q0.421875 0.5 1.140625 1.046875q0.71875 0.546875 1.765625 1.203125l11.171875 0q0.140625 0 0.25 0.078125q0.109375 0.078125 0.1875 0.25q0.0625 0.15625 0.09375 0.46875q0.046875 0.296875 0.046875 0.765625q0 0.453125 -0.046875 0.765625q-0.03125 0.296875 -0.09375 0.484375q-0.078125 0.171875 -0.1875 0.234375q-0.109375 0.0625 -0.25 0.0625l-16.984375 0q-0.15625 0 -0.25 -0.046875q-0.109375 -0.0625 -0.1875 -0.234375q-0.09375 -0.171875 -0.125 -0.4375q-0.03125 -0.265625 -0.03125 -0.6875q0 -0.421875 0.03125 -0.6875q0.03125 -0.28125 0.125 -0.421875q0.078125 -0.15625 0.1875 -0.21875q0.09375 -0.078125 0.25 -0.078125l2.46875 0q-1.015625 -0.703125 -1.65625 -1.3125q-0.65625 -0.609375 -1.015625 -1.15625q-0.375 -0.546875 -0.515625 -1.078125q-0.140625 -0.546875 -0.140625 -1.09375q0 -0.25 0.03125 -0.5625q0.03125 -0.3125 0.109375 -0.640625q0.078125 -0.34375 0.171875 -0.609375q0.09375 -0.28125 0.1875 -0.390625q0.09375 -0.125 0.1875 -0.15625q0.078125 -0.03125 0.203125 -0.0625q0.125 -0.03125 0.390625 -0.03125q0.25 -0.015625 0.6875 -0.015625zm7.15625 -19.179962q2.203125 0 3.96875 0.484375q1.765625 0.484375 3.015625 1.421875q1.234375 0.921875 1.90625 2.28125q0.65625 1.359375 0.65625 3.109375q0 0.8125 -0.171875 1.515625q-0.15625 0.6875 -0.5 1.34375q-0.359375 0.65625 -0.90625 1.328125q-0.5625 0.65625 -1.328125 1.390625l2.078125 0q0.140625 0 0.265625 0.078125q0.109375 0.0625 0.171875 0.234375q0.0625 0.171875 0.09375 0.4375q0.046875 0.25 0.046875 0.640625q0 0.375 -0.046875 0.640625q-0.03125 0.265625 -0.09375 0.4375q-0.0625 0.171875 -0.171875 0.234375q-0.125 0.046875 -0.265625 0.046875l-25.21875 0q-0.15625 0 -0.265625 -0.0625q-0.109375 -0.0625 -0.1875 -0.234375q-0.078125 -0.1875 -0.109375 -0.484375q-0.046875 -0.3125 -0.046875 -0.765625q0 -0.46875 0.046875 -0.765625q0.03125 -0.3125 0.109375 -0.46875q0.078125 -0.171875 0.1875 -0.25q0.109375 -0.078125 0.265625 -0.078125l10.171875 0q-0.78125 -0.75 -1.296875 -1.453125q-0.53125 -0.71875 -0.859375 -1.390625q-0.328125 -0.6875 -0.484375 -1.359375q-0.15625 -0.6875 -0.15625 -1.4375q0 -1.859375 0.734375 -3.171875q0.734375 -1.3125 1.984375 -2.125q1.234375 -0.828125 2.890625 -1.203125q1.65625 -0.375 3.515625 -0.375zm0.359375 3.28125q-1.3125 0 -2.53125 0.203125q-1.234375 0.203125 -2.171875 0.6875q-0.953125 0.484375 -1.515625 1.296875q-0.578125 0.8125 -0.578125 2.03125q0 0.59375 0.171875 1.1875q0.171875 0.578125 0.5625 1.1875q0.390625 0.59375 1.015625 1.25q0.625 0.65625 1.5625 1.390625l6.78125 0q1.5625 -1.28125 2.390625 -2.453125q0.8125 -1.171875 0.8125 -2.4375q0 -1.171875 -0.5625 -2.0q-0.5625 -0.828125 -1.5 -1.34375q-0.9375 -0.53125 -2.09375 -0.765625q-1.15625 -0.234375 -2.34375 -0.234375zm-0.328125 -23.762756q2.078125 0 3.828125 0.546875q1.734375 0.546875 3.0 1.640625q1.265625 1.078125 1.984375 2.71875q0.703125 1.625 0.703125 3.78125q0 2.09375 -0.625 3.65625q-0.625 1.546875 -1.8125 2.59375q-1.1875 1.03125 -2.875 1.546875q-1.703125 0.5 -3.859375 0.5q-2.078125 0 -3.828125 -0.53125q-1.75 -0.546875 -3.0 -1.625q-1.265625 -1.078125 -1.96875 -2.703125q-0.703125 -1.625 -0.703125 -3.796875q0 -2.09375 0.625 -3.65625q0.625 -1.5625 1.8125 -2.59375q1.1875 -1.03125 2.890625 -1.546875q1.703125 -0.53125 3.828125 -0.53125zm0.203125 3.28125q-1.375 0 -2.59375 0.265625q-1.234375 0.25 -2.15625 0.84375q-0.921875 0.578125 -1.453125 1.578125q-0.546875 1.0 -0.546875 2.484375q0 1.375 0.5 2.375q0.484375 0.984375 1.390625 1.625q0.890625 0.640625 2.125 0.953125q1.21875 0.3125 2.671875 0.3125q1.390625 0 2.625 -0.25q1.21875 -0.25 2.140625 -0.84375q0.90625 -0.59375 1.453125 -1.59375q0.53125 -1.0 0.53125 -2.5q0 -1.359375 -0.484375 -2.359375q-0.5 -1.0 -1.375 -1.640625q-0.890625 -0.640625 -2.109375 -0.9375q-1.234375 -0.3125 -2.71875 -0.3125z" fill-rule="nonzero"/><path fill="#000000" fill-opacity="0.0" d="m82.57382 807.714l0 -221.00787l59.55905 0l0 221.00787z" fill-rule="evenodd"/><path fill="#ffffff" d="m111.00632 720.8926q0.65625 0 0.953125 0.1875q0.296875 0.171875 0.296875 0.453125l0 2.4375q0.671875 -0.671875 1.5 -0.921875q0.8125 -0.265625 1.703125 -0.265625q1.46875 0 2.609375 0.46875q1.125 0.46875 1.921875 1.34375q0.78125 0.875 1.203125 2.09375q0.40625 1.203125 0.40625 2.671875q0 1.046875 -0.265625 1.984375q-0.28125 0.921875 -0.703125 1.4375q0.34375 0.34375 0.78125 0.5625q0.4375 0.203125 1.0 0.203125q0.65625 0 1.09375 -0.609375q0.4375 -0.609375 0.46875 -1.625l0.1875 -4.4375q0.046875 -1.265625 0.359375 -2.328125q0.296875 -1.0625 0.875 -1.828125q0.578125 -0.78125 1.421875 -1.203125q0.84375 -0.4375 1.953125 -0.4375q1.171875 0 2.21875 0.5q1.0625 0.484375 1.859375 1.5q0.8125 1.0 1.265625 2.5625q0.46875 1.5625 0.46875 3.703125q0 2.0625 -0.359375 3.5q-0.34375 1.4375 -0.953125 2.375q-0.59375 0.921875 -1.4375 1.34375q-0.84375 0.40625 -1.8125 0.40625q-0.625 0 -1.21875 -0.140625q-0.578125 -0.15625 -1.109375 -0.46875q-0.53125 -0.3125 -1.0 -0.765625q-0.484375 -0.46875 -0.96875 -1.078125q-0.46875 0.921875 -1.1875 1.375q-0.71875 0.4375 -1.546875 0.4375q-1.140625 0 -2.046875 -0.46875q-0.90625 -0.46875 -1.625 -1.171875q-0.703125 0.578125 -1.578125 0.921875q-0.875 0.34375 -2.125 0.34375q-1.453125 0 -2.609375 -0.484375q-1.15625 -0.5 -1.9375 -1.359375q-0.796875 -0.875 -1.21875 -2.09375q-0.421875 -1.21875 -0.421875 -2.65625q0 -0.765625 0.09375 -1.4375q0.078125 -0.671875 0.21875 -1.265625l0 -5.125q0 -0.328125 0.3125 -0.484375q0.3125 -0.15625 0.953125 -0.15625zm4.46875 4.859375q-1.734375 0 -2.703125 0.953125q-0.96875 0.953125 -0.96875 2.71875q0 0.90625 0.3125 1.578125q0.296875 0.671875 0.828125 1.109375q0.515625 0.4375 1.203125 0.65625q0.6875 0.21875 1.453125 0.21875q1.671875 0 2.640625 -0.953125q0.953125 -0.953125 0.953125 -2.671875q0 -0.921875 -0.28125 -1.59375q-0.296875 -0.6875 -0.8125 -1.125q-0.515625 -0.453125 -1.1875 -0.671875q-0.6875 -0.21875 -1.4375 -0.21875zm13.46875 -1.5625q-1.09375 0 -1.6875 0.90625q-0.59375 0.890625 -0.640625 2.421875l-0.15625 4.390625q0.484375 0.609375 0.90625 1.0q0.421875 0.375 0.8125 0.609375q0.390625 0.21875 0.765625 0.3125q0.375 0.078125 0.765625 0.078125q1.234375 0 1.859375 -1.234375q0.640625 -1.25 0.640625 -3.484375q0 -1.40625 -0.28125 -2.359375q-0.265625 -0.953125 -0.71875 -1.53125q-0.453125 -0.59375 -1.046875 -0.84375q-0.578125 -0.265625 -1.21875 -0.265625zm-10.484375 -22.929993q2.234375 0 4.015625 0.484375q1.765625 0.484375 3.0 1.421875q1.234375 0.921875 1.90625 2.3125q0.671875 1.375 0.671875 3.140625q0 0.75 -0.15625 1.40625q-0.140625 0.640625 -0.453125 1.25q-0.328125 0.609375 -0.8125 1.21875q-0.5 0.59375 -1.171875 1.28125l8.5 0q0.15625 0 0.265625 0.078125q0.109375 0.078125 0.1875 0.25q0.078125 0.15625 0.109375 0.46875q0.046875 0.296875 0.046875 0.765625q0 0.453125 -0.046875 0.765625q-0.03125 0.296875 -0.109375 0.484375q-0.078125 0.171875 -0.1875 0.234375q-0.109375 0.0625 -0.265625 0.0625l-23.71875 0q-0.171875 0 -0.28125 -0.046875q-0.109375 -0.0625 -0.171875 -0.234375q-0.078125 -0.171875 -0.109375 -0.4375q-0.03125 -0.265625 -0.03125 -0.640625q0 -0.390625 0.03125 -0.640625q0.03125 -0.265625 0.109375 -0.4375q0.0625 -0.171875 0.171875 -0.234375q0.109375 -0.0625 0.28125 -0.0625l2.28125 0q-0.796875 -0.78125 -1.375 -1.484375q-0.59375 -0.71875 -0.96875 -1.4375q-0.390625 -0.734375 -0.59375 -1.5q-0.203125 -0.765625 -0.203125 -1.625q0 -1.84375 0.71875 -3.140625q0.71875 -1.3125 1.96875 -2.125q1.234375 -0.828125 2.890625 -1.203125q1.65625 -0.375 3.5 -0.375zm0.359375 3.28125q-1.296875 0 -2.515625 0.203125q-1.21875 0.203125 -2.15625 0.6875q-0.953125 0.46875 -1.515625 1.28125q-0.5625 0.8125 -0.5625 2.015625q0 0.609375 0.1875 1.203125q0.171875 0.578125 0.5625 1.1875q0.375 0.59375 1.015625 1.265625q0.625 0.65625 1.546875 1.390625l6.765625 0q1.5625 -1.28125 2.390625 -2.4375q0.828125 -1.15625 0.828125 -2.421875q0 -1.171875 -0.5625 -2.0q-0.5625 -0.84375 -1.5 -1.359375q-0.953125 -0.515625 -2.125 -0.765625q-1.171875 -0.25 -2.359375 -0.25zm7.15625 -16.624084q0.546875 0 0.875 0.078125q0.3125 0.0625 0.46875 0.21875q0.15625 0.15625 0.28125 0.453125q0.125 0.296875 0.203125 0.6875q0.09375 0.390625 0.15625 0.828125q0.0625 0.4375 0.0625 0.859375q0 1.328125 -0.34375 2.28125q-0.359375 0.9375 -1.0625 1.546875q-0.71875 0.59375 -1.796875 0.875q-1.09375 0.265625 -2.5625 0.265625l-9.921875 0l0 2.375q0 0.28125 -0.296875 0.453125q-0.3125 0.171875 -0.984375 0.171875q-0.359375 0 -0.609375 -0.046875q-0.25 -0.046875 -0.40625 -0.125q-0.15625 -0.078125 -0.21875 -0.1875q-0.078125 -0.125 -0.078125 -0.28125l0 -2.359375l-4.03125 0q-0.140625 0 -0.25 -0.0625q-0.109375 -0.0625 -0.1875 -0.234375q-0.09375 -0.1875 -0.125 -0.484375q-0.046875 -0.3125 -0.046875 -0.765625q0 -0.46875 0.046875 -0.765625q0.03125 -0.3125 0.125 -0.484375q0.078125 -0.171875 0.1875 -0.234375q0.109375 -0.078125 0.25 -0.078125l4.03125 0l0 -4.359375q0 -0.15625 0.078125 -0.265625q0.0625 -0.109375 0.21875 -0.1875q0.15625 -0.09375 0.40625 -0.125q0.25 -0.046875 0.609375 -0.046875q0.671875 0 0.984375 0.171875q0.296875 0.171875 0.296875 0.453125l0 4.359375l9.46875 0q1.75 0 2.65625 -0.515625q0.890625 -0.53125 0.890625 -1.859375q0 -0.4375 -0.078125 -0.78125q-0.09375 -0.34375 -0.1875 -0.609375q-0.09375 -0.265625 -0.171875 -0.453125q-0.09375 -0.1875 -0.09375 -0.328125q0 -0.09375 0.046875 -0.171875q0.046875 -0.09375 0.1875 -0.140625q0.125 -0.046875 0.359375 -0.078125q0.21875 -0.046875 0.5625 -0.046875zm-7.8125 -10.571411q0.734375 0 1.015625 0.171875q0.28125 0.171875 0.28125 0.484375l0 7.890625q0 0.34375 -0.28125 0.515625q-0.296875 0.171875 -1.015625 0.171875q-0.71875 0 -1.0 -0.171875q-0.28125 -0.171875 -0.28125 -0.515625l0 -7.890625q0 -0.140625 0.0625 -0.265625q0.046875 -0.125 0.21875 -0.203125q0.15625 -0.09375 0.40625 -0.140625q0.234375 -0.046875 0.59375 -0.046875zm2.578125 -19.787842q0.625 0 0.984375 0.203125q0.359375 0.1875 0.359375 0.515625l0 2.765625l5.140625 0q0.140625 0 0.25 0.078125q0.109375 0.0625 0.1875 0.25q0.0625 0.1875 0.09375 0.5q0.046875 0.296875 0.046875 0.765625q0 0.453125 -0.046875 0.765625q-0.03125 0.296875 -0.09375 0.484375q-0.078125 0.171875 -0.1875 0.234375q-0.109375 0.0625 -0.25 0.0625l-5.140625 0l0 10.078125q0 0.234375 -0.046875 0.390625q-0.0625 0.140625 -0.203125 0.265625q-0.15625 0.125 -0.4375 0.171875q-0.296875 0.046875 -0.75 0.046875q-0.359375 0 -0.640625 -0.015625q-0.28125 -0.015625 -0.515625 -0.078125q-0.234375 -0.0625 -0.453125 -0.15625q-0.21875 -0.09375 -0.453125 -0.21875l-14.84375 -8.796875q-0.15625 -0.09375 -0.265625 -0.265625q-0.109375 -0.1875 -0.1875 -0.46875q-0.078125 -0.28125 -0.09375 -0.703125q-0.03125 -0.421875 -0.03125 -0.984375q0 -0.625 0.046875 -1.078125q0.046875 -0.46875 0.125 -0.75q0.0625 -0.28125 0.1875 -0.421875q0.125 -0.15625 0.296875 -0.15625l15.59375 0l0 -2.765625q0 -0.3125 0.328125 -0.515625q0.328125 -0.203125 1.0 -0.203125zm-14.734375 6.625l0 0.046875l13.40625 7.9375l0 -7.984375l-13.40625 0z" fill-rule="nonzero"/><path fill="#000000" fill-opacity="0.0" d="m82.57382 1076.7878l0 -221.00787l59.55905 0l0 221.00787z" fill-rule="evenodd"/><path fill="#ffffff" d="m124.63132 1027.2568q0.328125 0 0.5625 0.015625q0.234375 0.015625 0.40625 0.0625q0.15625 0.046875 0.28125 0.125q0.109375 0.0625 0.34375 0.296875q0.234375 0.234375 0.59375 0.796875q0.34375 0.5625 0.625 1.28125q0.265625 0.703125 0.4375 1.53125q0.171875 0.828125 0.171875 1.71875q0 1.828125 -0.59375 3.25q-0.609375 1.40625 -1.765625 2.359375q-1.171875 0.953125 -2.859375 1.453125q-1.6875 0.5 -3.90625 0.5q-2.5 0 -4.296875 -0.609375q-1.8125 -0.609375 -2.953125 -1.671875q-1.15625 -1.078125 -1.71875 -2.515625q-0.5625 -1.453125 -0.5625 -3.125q0 -0.8125 0.15625 -1.578125q0.15625 -0.765625 0.40625 -1.40625q0.234375 -0.640625 0.5625 -1.140625q0.3125 -0.5 0.546875 -0.71875q0.21875 -0.234375 0.359375 -0.3125q0.125 -0.09375 0.3125 -0.140625q0.171875 -0.0625 0.40625 -0.078125q0.21875 -0.03125 0.5625 -0.03125q0.734375 0 1.03125 0.171875q0.28125 0.171875 0.28125 0.421875q0 0.28125 -0.296875 0.65625q-0.3125 0.359375 -0.6875 0.9375q-0.390625 0.5625 -0.703125 1.359375q-0.3125 0.796875 -0.3125 1.890625q0 2.25 1.734375 3.453125q1.71875 1.203125 5.015625 1.203125q1.640625 0 2.875 -0.3125q1.234375 -0.3125 2.0625 -0.921875q0.828125 -0.609375 1.234375 -1.484375q0.40625 -0.875 0.40625 -2.015625q0 -1.0625 -0.328125 -1.875q-0.34375 -0.8125 -0.75 -1.40625q-0.40625 -0.59375 -0.734375 -1.0q-0.34375 -0.40625 -0.34375 -0.640625q0 -0.125 0.078125 -0.21875q0.078125 -0.09375 0.265625 -0.15625q0.171875 -0.078125 0.453125 -0.09375q0.265625 -0.03125 0.640625 -0.03125zm2.59375 -7.252075q0.140625 0 0.25 0.078125q0.109375 0.078125 0.1875 0.25q0.0625 0.15625 0.09375 0.46875q0.046875 0.296875 0.046875 0.765625q0 0.453125 -0.046875 0.765625q-0.03125 0.296875 -0.09375 0.484375q-0.078125 0.171875 -0.1875 0.234375q-0.109375 0.0625 -0.25 0.0625l-25.21875 0q-0.15625 0 -0.265625 -0.0625q-0.109375 -0.0625 -0.1875 -0.234375q-0.078125 -0.1875 -0.109375 -0.484375q-0.046875 -0.3125 -0.046875 -0.765625q0 -0.46875 0.046875 -0.765625q0.03125 -0.3125 0.109375 -0.46875q0.078125 -0.171875 0.1875 -0.25q0.109375 -0.078125 0.265625 -0.078125l25.21875 0zm0.015625 -18.558838q0.234375 0 0.34375 0.15625q0.109375 0.140625 0.15625 0.40625q0.0625 0.265625 0.0625 0.78125q0 0.484375 -0.0625 0.78125q-0.046875 0.296875 -0.15625 0.4375q-0.109375 0.125 -0.34375 0.125l-1.703125 0q1.1875 1.109375 1.859375 2.484375q0.65625 1.359375 0.65625 2.890625q0 1.34375 -0.359375 2.4375q-0.34375 1.078125 -1.0 1.84375q-0.65625 0.765625 -1.625 1.1875q-0.96875 0.421875 -2.1875 0.421875q-1.4375 0 -2.484375 -0.578125q-1.0625 -0.59375 -1.765625 -1.6875q-0.703125 -1.09375 -1.046875 -2.671875q-0.34375 -1.59375 -0.34375 -3.578125l0 -2.34375l-1.328125 0q-0.984375 0 -1.734375 0.21875q-0.75 0.203125 -1.25 0.671875q-0.5 0.453125 -0.75 1.1875q-0.265625 0.734375 -0.265625 1.8125q0 1.15625 0.28125 2.078125q0.265625 0.90625 0.59375 1.59375q0.328125 0.6875 0.609375 1.15625q0.265625 0.453125 0.265625 0.6875q0 0.15625 -0.0625 0.265625q-0.078125 0.109375 -0.234375 0.203125q-0.15625 0.078125 -0.390625 0.125q-0.234375 0.03125 -0.515625 0.03125q-0.46875 0 -0.734375 -0.0625q-0.28125 -0.078125 -0.53125 -0.328125q-0.25 -0.25 -0.578125 -0.875q-0.328125 -0.625 -0.59375 -1.4375q-0.28125 -0.8125 -0.453125 -1.765625q-0.1875 -0.96875 -0.1875 -1.953125q0 -1.828125 0.421875 -3.109375q0.40625 -1.28125 1.21875 -2.078125q0.796875 -0.796875 1.984375 -1.15625q1.1875 -0.359375 2.78125 -0.359375l11.453125 0zm-7.75 3.09375l0 2.671875q0 1.28125 0.21875 2.234375q0.203125 0.9375 0.640625 1.5625q0.421875 0.609375 1.015625 0.90625q0.59375 0.296875 1.359375 0.296875q1.328125 0 2.109375 -0.84375q0.78125 -0.84375 0.78125 -2.34375q0 -1.234375 -0.625 -2.28125q-0.625 -1.046875 -1.90625 -2.203125l-3.59375 0zm7.734375 -23.36023q0.140625 0 0.25 0.0625q0.109375 0.0625 0.1875 0.234375q0.0625 0.171875 0.09375 0.453125q0.046875 0.265625 0.046875 0.65625q0 0.4375 -0.046875 0.71875q-0.03125 0.265625 -0.09375 0.4375q-0.078125 0.15625 -0.1875 0.21875q-0.109375 0.046875 -0.25 0.046875l-2.25 0q1.609375 1.453125 2.34375 2.875q0.734375 1.40625 0.734375 2.859375q0 1.703125 -0.5625 2.875q-0.578125 1.15625 -1.546875 1.875q-0.96875 0.703125 -2.25 1.015625q-1.296875 0.3125 -3.15625 0.3125l-10.296875 0q-0.15625 0 -0.25 -0.0625q-0.109375 -0.0625 -0.1875 -0.25q-0.09375 -0.1875 -0.125 -0.484375q-0.03125 -0.3125 -0.03125 -0.765625q0 -0.453125 0.03125 -0.75q0.03125 -0.3125 0.125 -0.484375q0.078125 -0.1875 0.1875 -0.25q0.09375 -0.078125 0.25 -0.078125l9.890625 0q1.484375 0 2.390625 -0.21875q0.890625 -0.21875 1.53125 -0.65625q0.625 -0.453125 0.96875 -1.125q0.34375 -0.6875 0.34375 -1.59375q0 -1.171875 -0.828125 -2.328125q-0.828125 -1.15625 -2.4375 -2.46875l-11.859375 0q-0.15625 0 -0.25 -0.0625q-0.109375 -0.0625 -0.1875 -0.25q-0.09375 -0.1875 -0.125 -0.484375q-0.03125 -0.296875 -0.03125 -0.765625q0 -0.453125 0.03125 -0.75q0.03125 -0.3125 0.125 -0.46875q0.078125 -0.171875 0.1875 -0.25q0.09375 -0.09375 0.25 -0.09375l16.984375 0zm0 -20.309631q0.140625 0 0.265625 0.0625q0.109375 0.0625 0.171875 0.234375q0.0625 0.15625 0.09375 0.421875q0.046875 0.265625 0.046875 0.640625q0 0.390625 -0.046875 0.65625q-0.03125 0.265625 -0.09375 0.4375q-0.0625 0.171875 -0.171875 0.25q-0.125 0.0625 -0.265625 0.0625l-2.25 0q1.453125 1.34375 2.265625 2.796875q0.8125 1.4375 0.8125 3.15625q0 1.859375 -0.71875 3.1875q-0.734375 1.328125 -1.96875 2.15625q-1.234375 0.8125 -2.90625 1.1875q-1.671875 0.375 -3.53125 0.375q-2.1875 0 -3.953125 -0.46875q-1.765625 -0.46875 -3.0 -1.390625q-1.25 -0.9375 -1.921875 -2.296875q-0.671875 -1.375 -0.671875 -3.171875q0 -1.484375 0.65625 -2.71875q0.65625 -1.234375 1.921875 -2.453125l-9.875 0q-0.140625 0 -0.25 -0.0625q-0.125 -0.0625 -0.1875 -0.25q-0.078125 -0.1875 -0.125 -0.484375q-0.046875 -0.296875 -0.046875 -0.75q0 -0.46875 0.046875 -0.765625q0.046875 -0.3125 0.125 -0.46875q0.0625 -0.171875 0.1875 -0.25q0.109375 -0.09375 0.25 -0.09375l25.140625 0zm-11.953125 3.125q-1.5625 1.265625 -2.375 2.453125q-0.828125 1.171875 -0.828125 2.453125q0 1.203125 0.5625 2.03125q0.5625 0.828125 1.5 1.34375q0.921875 0.515625 2.09375 0.75q1.15625 0.234375 2.375 0.234375q1.28125 0 2.515625 -0.1875q1.21875 -0.203125 2.171875 -0.6875q0.953125 -0.5 1.53125 -1.3125q0.578125 -0.8125 0.578125 -2.03125q0 -0.625 -0.171875 -1.203125q-0.171875 -0.578125 -0.5625 -1.171875q-0.40625 -0.609375 -1.03125 -1.265625q-0.640625 -0.671875 -1.5625 -1.40625l-6.796875 0zm2.71875 -23.387756q0.734375 0 1.046875 0.375q0.3125 0.375 0.3125 0.84375l0 11.125q1.421875 0 2.5625 -0.28125q1.125 -0.28125 1.9375 -0.9375q0.8125 -0.65625 1.25 -1.71875q0.421875 -1.0625 0.421875 -2.578125q0 -1.21875 -0.1875 -2.15625q-0.203125 -0.953125 -0.453125 -1.640625q-0.25 -0.6875 -0.4375 -1.125q-0.203125 -0.453125 -0.203125 -0.671875q0 -0.140625 0.0625 -0.234375q0.0625 -0.109375 0.203125 -0.15625q0.125 -0.0625 0.375 -0.09375q0.234375 -0.03125 0.5625 -0.03125q0.25 0 0.4375 0.03125q0.171875 0.015625 0.3125 0.046875q0.140625 0.015625 0.265625 0.09375q0.109375 0.0625 0.21875 0.171875q0.09375 0.09375 0.328125 0.609375q0.234375 0.5 0.46875 1.3125q0.21875 0.8125 0.390625 1.890625q0.1875 1.0625 0.1875 2.265625q0 2.09375 -0.578125 3.671875q-0.59375 1.578125 -1.734375 2.65625q-1.15625 1.078125 -2.890625 1.625q-1.75 0.546875 -4.046875 0.546875q-2.1875 0 -3.9375 -0.5625q-1.75 -0.578125 -2.953125 -1.640625q-1.21875 -1.0625 -1.875 -2.578125q-0.65625 -1.515625 -0.65625 -3.375q0 -2.0 0.640625 -3.40625q0.640625 -1.40625 1.734375 -2.3125q1.078125 -0.90625 2.546875 -1.328125q1.46875 -0.4375 3.125 -0.4375l0.5625 0zm-0.921875 3.140625q-2.453125 -0.0625 -3.84375 1.078125q-1.40625 1.140625 -1.40625 3.390625q0 1.15625 0.4375 2.03125q0.4375 0.859375 1.15625 1.453125q0.703125 0.578125 1.65625 0.90625q0.953125 0.3125 2.0 0.34375l0 -9.203125zm1.09375 -15.515015q0.734375 0 1.015625 0.171875q0.28125 0.171875 0.28125 0.484375l0 7.890625q0 0.34375 -0.28125 0.515625q-0.296875 0.171875 -1.015625 0.171875q-0.71875 0 -1.0 -0.171875q-0.28125 -0.171875 -0.28125 -0.515625l0 -7.890625q0 -0.140625 0.0625 -0.265625q0.046875 -0.125 0.21875 -0.203125q0.15625 -0.09375 0.40625 -0.140625q0.234375 -0.046875 0.59375 -0.046875zm-7.96875 -17.776062q0.078125 0 0.171875 0.015625q0.078125 0 0.171875 0.015625q0.09375 0.015625 0.203125 0.046875q0.109375 0.03125 0.25 0.0625l16.140625 5.796875q0.203125 0.078125 0.34375 0.203125q0.125 0.125 0.203125 0.375q0.078125 0.234375 0.09375 0.609375q0.03125 0.375 0.03125 0.953125q0 0.5625 -0.046875 0.9375q-0.03125 0.375 -0.09375 0.609375q-0.078125 0.234375 -0.203125 0.375q-0.140625 0.125 -0.328125 0.203125l-16.140625 5.78125q-0.234375 0.078125 -0.390625 0.125q-0.171875 0.046875 -0.25 0.0625q-0.09375 0 -0.15625 0q-0.140625 0 -0.25 -0.078125q-0.125 -0.078125 -0.1875 -0.25q-0.0625 -0.1875 -0.078125 -0.46875q-0.03125 -0.296875 -0.03125 -0.734375q0 -0.546875 0.03125 -0.875q0.03125 -0.328125 0.109375 -0.5q0.0625 -0.1875 0.1875 -0.265625q0.109375 -0.09375 0.28125 -0.171875l14.0 -4.796875l0.234375 -0.078125l-0.234375 -0.046875l-14.0 -4.734375q-0.171875 -0.046875 -0.28125 -0.140625q-0.125 -0.09375 -0.1875 -0.265625q-0.078125 -0.1875 -0.109375 -0.5q-0.03125 -0.3125 -0.03125 -0.8125q0 -0.4375 0.03125 -0.71875q0.015625 -0.28125 0.09375 -0.4375q0.0625 -0.171875 0.171875 -0.234375q0.109375 -0.0625 0.25 -0.0625zm16.21875 -18.147034q0.359375 0 0.609375 0.0625q0.234375 0.046875 0.390625 0.15625q0.15625 0.09375 0.21875 0.21875q0.0625 0.109375 0.0625 0.25l0 12.75q0 0.140625 -0.0625 0.25q-0.0625 0.109375 -0.21875 0.21875q-0.15625 0.109375 -0.390625 0.171875q-0.25 0.046875 -0.609375 0.046875q-0.34375 0 -0.578125 -0.046875q-0.25 -0.0625 -0.40625 -0.140625q-0.171875 -0.09375 -0.25 -0.21875q-0.09375 -0.125 -0.09375 -0.28125l0 -5.09375l-18.5625 0l2.8125 4.71875q0.1875 0.359375 0.234375 0.578125q0.03125 0.21875 -0.09375 0.359375q-0.125 0.125 -0.40625 0.171875q-0.28125 0.046875 -0.71875 0.046875q-0.328125 0 -0.546875 -0.03125q-0.234375 -0.03125 -0.375 -0.078125q-0.15625 -0.0625 -0.265625 -0.15625q-0.125 -0.109375 -0.234375 -0.28125l-3.609375 -5.625q-0.046875 -0.078125 -0.078125 -0.1875q-0.046875 -0.125 -0.078125 -0.28125q-0.046875 -0.171875 -0.046875 -0.390625q-0.015625 -0.234375 -0.015625 -0.578125q0 -0.453125 0.046875 -0.75q0.03125 -0.3125 0.09375 -0.46875q0.0625 -0.171875 0.171875 -0.234375q0.109375 -0.0625 0.21875 -0.0625l21.453125 0l0 -4.40625q0 -0.15625 0.09375 -0.28125q0.078125 -0.140625 0.25 -0.21875q0.15625 -0.09375 0.40625 -0.140625q0.234375 -0.046875 0.578125 -0.046875z" fill-rule="nonzero"/><path fill="#000000" fill-opacity="0.0" d="m82.57382 1345.8636l0 -221.00781l59.55905 0l0 221.00781z" fill-rule="evenodd"/><path fill="#ffffff" d="m127.22507 1323.5654q0.140625 0 0.25 0.078125q0.109375 0.078125 0.1875 0.25q0.0625 0.15625 0.09375 0.46875q0.046875 0.296875 0.046875 0.765625q0 0.453125 -0.046875 0.765625q-0.03125 0.296875 -0.09375 0.484375q-0.078125 0.171875 -0.1875 0.234375q-0.109375 0.0625 -0.25 0.0625l-25.21875 0q-0.15625 0 -0.265625 -0.0625q-0.109375 -0.0625 -0.1875 -0.234375q-0.078125 -0.1875 -0.109375 -0.484375q-0.046875 -0.3125 -0.046875 -0.765625q0 -0.46875 0.046875 -0.765625q0.03125 -0.3125 0.109375 -0.46875q0.078125 -0.171875 0.1875 -0.25q0.109375 -0.078125 0.265625 -0.078125l25.21875 0zm0 -8.871216q0.140625 0 0.25 0.078125q0.109375 0.078125 0.1875 0.25q0.0625 0.15625 0.09375 0.46875q0.046875 0.296875 0.046875 0.765625q0 0.453125 -0.046875 0.765625q-0.03125 0.296875 -0.09375 0.484375q-0.078125 0.171875 -0.1875 0.234375q-0.109375 0.0625 -0.25 0.0625l-25.21875 0q-0.15625 0 -0.265625 -0.0625q-0.109375 -0.0625 -0.1875 -0.234375q-0.078125 -0.1875 -0.109375 -0.484375q-0.046875 -0.3125 -0.046875 -0.765625q0 -0.46875 0.046875 -0.765625q0.03125 -0.3125 0.109375 -0.46875q0.078125 -0.171875 0.1875 -0.25q0.109375 -0.078125 0.265625 -0.078125l25.21875 0zm0.015625 -18.558838q0.234375 0 0.34375 0.15625q0.109375 0.140625 0.15625 0.40625q0.0625 0.265625 0.0625 0.78125q0 0.484375 -0.0625 0.78125q-0.046875 0.296875 -0.15625 0.4375q-0.109375 0.125 -0.34375 0.125l-1.703125 0q1.1875 1.109375 1.859375 2.484375q0.65625 1.359375 0.65625 2.890625q0 1.34375 -0.359375 2.4375q-0.34375 1.078125 -1.0 1.84375q-0.65625 0.765625 -1.625 1.1875q-0.96875 0.421875 -2.1875 0.421875q-1.4375 0 -2.484375 -0.578125q-1.0625 -0.59375 -1.765625 -1.6875q-0.703125 -1.09375 -1.046875 -2.671875q-0.34375 -1.59375 -0.34375 -3.578125l0 -2.34375l-1.328125 0q-0.984375 0 -1.734375 0.21875q-0.75 0.203125 -1.25 0.671875q-0.5 0.453125 -0.75 1.1875q-0.265625 0.734375 -0.265625 1.8125q0 1.15625 0.28125 2.078125q0.265625 0.90625 0.59375 1.59375q0.328125 0.6875 0.609375 1.15625q0.265625 0.453125 0.265625 0.6875q0 0.15625 -0.0625 0.265625q-0.078125 0.109375 -0.234375 0.203125q-0.15625 0.078125 -0.390625 0.125q-0.234375 0.03125 -0.515625 0.03125q-0.46875 0 -0.734375 -0.0625q-0.28125 -0.078125 -0.53125 -0.328125q-0.25 -0.25 -0.578125 -0.875q-0.328125 -0.625 -0.59375 -1.4375q-0.28125 -0.8125 -0.453125 -1.765625q-0.1875 -0.96875 -0.1875 -1.953125q0 -1.828125 0.421875 -3.109375q0.40625 -1.28125 1.21875 -2.078125q0.796875 -0.796875 1.984375 -1.15625q1.1875 -0.359375 2.78125 -0.359375l11.453125 0zm-7.75 3.09375l0 2.671875q0 1.28125 0.21875 2.234375q0.203125 0.9375 0.640625 1.5625q0.421875 0.609375 1.015625 0.90625q0.59375 0.296875 1.359375 0.296875q1.328125 0 2.109375 -0.84375q0.78125 -0.84375 0.78125 -2.34375q0 -1.234375 -0.625 -2.28125q-0.625 -1.046875 -1.90625 -2.203125l-3.59375 0zm7.734375 -34.01648q0.140625 0 0.25 0.078125q0.109375 0.078125 0.1875 0.25q0.0625 0.171875 0.09375 0.484375q0.046875 0.296875 0.046875 0.75q0 0.46875 -0.046875 0.765625q-0.03125 0.296875 -0.09375 0.484375q-0.078125 0.171875 -0.1875 0.25q-0.109375 0.078125 -0.25 0.078125l-10.328125 0q-1.078125 0 -1.953125 0.1875q-0.890625 0.1875 -1.53125 0.609375q-0.65625 0.40625 -0.984375 1.046875q-0.34375 0.640625 -0.34375 1.515625q0 1.078125 0.828125 2.171875q0.828125 1.078125 2.4375 2.375l11.875 0q0.140625 0 0.25 0.078125q0.109375 0.078125 0.1875 0.265625q0.0625 0.171875 0.09375 0.46875q0.046875 0.296875 0.046875 0.75q0 0.4375 -0.046875 0.75q-0.03125 0.3125 -0.09375 0.5q-0.078125 0.171875 -0.1875 0.234375q-0.109375 0.0625 -0.25 0.0625l-10.328125 0q-1.078125 0 -1.953125 0.21875q-0.890625 0.203125 -1.53125 0.625q-0.65625 0.40625 -0.984375 1.046875q-0.34375 0.625 -0.34375 1.5q0 1.078125 0.828125 2.171875q0.828125 1.09375 2.4375 2.375l11.875 0q0.140625 0 0.25 0.078125q0.109375 0.078125 0.1875 0.25q0.0625 0.15625 0.09375 0.46875q0.046875 0.296875 0.046875 0.765625q0 0.453125 -0.046875 0.765625q-0.03125 0.296875 -0.09375 0.484375q-0.078125 0.171875 -0.1875 0.234375q-0.109375 0.0625 -0.25 0.0625l-16.984375 0q-0.15625 0 -0.25 -0.046875q-0.109375 -0.0625 -0.1875 -0.234375q-0.09375 -0.171875 -0.125 -0.4375q-0.03125 -0.265625 -0.03125 -0.6875q0 -0.421875 0.03125 -0.6875q0.03125 -0.28125 0.125 -0.421875q0.078125 -0.15625 0.1875 -0.21875q0.09375 -0.078125 0.25 -0.078125l2.234375 0q-1.59375 -1.4375 -2.34375 -2.78125q-0.75 -1.34375 -0.75 -2.734375q0 -1.046875 0.25 -1.890625q0.25 -0.84375 0.6875 -1.484375q0.4375 -0.640625 1.0625 -1.09375q0.609375 -0.453125 1.359375 -0.75q-0.921875 -0.859375 -1.5625 -1.609375q-0.640625 -0.765625 -1.03125 -1.46875q-0.40625 -0.71875 -0.578125 -1.390625q-0.1875 -0.671875 -0.1875 -1.34375q0 -1.640625 0.578125 -2.75q0.578125 -1.125 1.546875 -1.8125q0.953125 -0.6875 2.25 -0.984375q1.296875 -0.296875 2.71875 -0.296875l10.75 0zm0.015625 -18.47351q0.234375 0 0.34375 0.15625q0.109375 0.140625 0.15625 0.40625q0.0625 0.265625 0.0625 0.78125q0 0.484375 -0.0625 0.78125q-0.046875 0.296875 -0.15625 0.4375q-0.109375 0.125 -0.34375 0.125l-1.703125 0q1.1875 1.109375 1.859375 2.484375q0.65625 1.359375 0.65625 2.890625q0 1.34375 -0.359375 2.4375q-0.34375 1.078125 -1.0 1.84375q-0.65625 0.765625 -1.625 1.1875q-0.96875 0.421875 -2.1875 0.421875q-1.4375 0 -2.484375 -0.578125q-1.0625 -0.59375 -1.765625 -1.6875q-0.703125 -1.09375 -1.046875 -2.671875q-0.34375 -1.59375 -0.34375 -3.578125l0 -2.34375l-1.328125 0q-0.984375 0 -1.734375 0.21875q-0.75 0.203125 -1.25 0.671875q-0.5 0.453125 -0.75 1.1875q-0.265625 0.734375 -0.265625 1.8125q0 1.15625 0.28125 2.078125q0.265625 0.90625 0.59375 1.59375q0.328125 0.6875 0.609375 1.15625q0.265625 0.453125 0.265625 0.6875q0 0.15625 -0.0625 0.265625q-0.078125 0.109375 -0.234375 0.203125q-0.15625 0.078125 -0.390625 0.125q-0.234375 0.03125 -0.515625 0.03125q-0.46875 0 -0.734375 -0.0625q-0.28125 -0.078125 -0.53125 -0.328125q-0.25 -0.25 -0.578125 -0.875q-0.328125 -0.625 -0.59375 -1.4375q-0.28125 -0.8125 -0.453125 -1.765625q-0.1875 -0.96875 -0.1875 -1.953125q0 -1.828125 0.421875 -3.109375q0.40625 -1.28125 1.21875 -2.078125q0.796875 -0.796875 1.984375 -1.15625q1.1875 -0.359375 2.78125 -0.359375l11.453125 0zm-7.75 3.09375l0 2.671875q0 1.28125 0.21875 2.234375q0.203125 0.9375 0.640625 1.5625q0.421875 0.609375 1.015625 0.90625q0.59375 0.296875 1.359375 0.296875q1.328125 0 2.109375 -0.84375q0.78125 -0.84375 0.78125 -2.34375q0 -1.234375 -0.625 -2.28125q-0.625 -1.046875 -1.90625 -2.203125l-3.59375 0zm-1.328125 -16.45398q0.734375 0 1.015625 0.171875q0.28125 0.171875 0.28125 0.484375l0 7.890625q0 0.34375 -0.28125 0.515625q-0.296875 0.171875 -1.015625 0.171875q-0.71875 0 -1.0 -0.171875q-0.28125 -0.171875 -0.28125 -0.515625l0 -7.890625q0 -0.140625 0.0625 -0.265625q0.046875 -0.125 0.21875 -0.203125q0.15625 -0.09375 0.40625 -0.140625q0.234375 -0.046875 0.59375 -0.046875zm8.140625 -18.740967q0.328125 0 0.59375 0.046875q0.265625 0.046875 0.453125 0.140625q0.171875 0.078125 0.265625 0.21875q0.078125 0.140625 0.078125 0.3125l0 13.484375q0 0.265625 -0.0625 0.46875q-0.0625 0.203125 -0.21875 0.34375q-0.15625 0.140625 -0.4375 0.203125q-0.28125 0.0625 -0.703125 0.0625q-0.375 0 -0.65625 -0.015625q-0.28125 -0.03125 -0.5 -0.125q-0.21875 -0.09375 -0.4375 -0.234375q-0.21875 -0.15625 -0.453125 -0.375l-5.03125 -4.734375q-1.734375 -1.640625 -3.109375 -2.625q-1.375 -1.0 -2.5 -1.53125q-1.140625 -0.546875 -2.0625 -0.71875q-0.921875 -0.171875 -1.734375 -0.171875q-0.8125 0 -1.53125 0.265625q-0.734375 0.265625 -1.28125 0.765625q-0.546875 0.5 -0.859375 1.265625q-0.328125 0.75 -0.328125 1.734375q0 1.140625 0.328125 2.0625q0.3125 0.90625 0.6875 1.609375q0.375 0.6875 0.703125 1.15625q0.3125 0.453125 0.3125 0.671875q0 0.140625 -0.078125 0.25q-0.078125 0.09375 -0.234375 0.15625q-0.171875 0.0625 -0.453125 0.109375q-0.296875 0.03125 -0.6875 0.03125q-0.28125 0 -0.484375 -0.015625q-0.21875 -0.015625 -0.359375 -0.0625q-0.15625 -0.046875 -0.28125 -0.125q-0.140625 -0.078125 -0.328125 -0.296875q-0.203125 -0.234375 -0.546875 -0.78125q-0.34375 -0.5625 -0.671875 -1.40625q-0.328125 -0.84375 -0.546875 -1.84375q-0.234375 -1.015625 -0.234375 -2.125q0 -1.78125 0.5 -3.109375q0.5 -1.328125 1.375 -2.203125q0.859375 -0.875 2.015625 -1.3125q1.140625 -0.4375 2.453125 -0.4375q1.171875 0 2.328125 0.21875q1.15625 0.203125 2.515625 0.875q1.34375 0.65625 3.0 1.921875q1.640625 1.265625 3.796875 3.359375l4.046875 3.875l0 -10.625q0 -0.15625 0.09375 -0.296875q0.078125 -0.140625 0.25 -0.234375q0.15625 -0.109375 0.421875 -0.15625q0.25 -0.046875 0.59375 -0.046875zm-8.140625 -12.686035q0.734375 0 1.015625 0.171875q0.28125 0.171875 0.28125 0.484375l0 7.890625q0 0.34375 -0.28125 0.515625q-0.296875 0.171875 -1.015625 0.171875q-0.71875 0 -1.0 -0.171875q-0.28125 -0.171875 -0.28125 -0.515625l0 -7.890625q0 -0.140625 0.0625 -0.265625q0.046875 -0.125 0.21875 -0.203125q0.15625 -0.09375 0.40625 -0.140625q0.234375 -0.046875 0.59375 -0.046875zm-13.5 -19.100342q0.34375 0 0.625 0.03125q0.265625 0.015625 0.53125 0.078125q0.25 0.046875 0.484375 0.125q0.234375 0.078125 0.5 0.203125l20.265625 8.796875q0.234375 0.09375 0.375 0.234375q0.140625 0.140625 0.234375 0.359375q0.078125 0.21875 0.09375 0.5625q0.03125 0.328125 0.03125 0.8125q0 0.640625 -0.0625 1.0q-0.046875 0.359375 -0.171875 0.53125q-0.125 0.15625 -0.296875 0.140625q-0.1875 -0.015625 -0.421875 -0.140625l-20.734375 -9.25l0 11.734375q0 0.34375 -0.375 0.53125q-0.375 0.171875 -1.0625 0.171875q-0.359375 0 -0.609375 -0.046875q-0.265625 -0.046875 -0.4375 -0.140625q-0.1875 -0.09375 -0.265625 -0.21875q-0.09375 -0.140625 -0.09375 -0.296875l0 -14.234375q0 -0.265625 0.0625 -0.46875q0.046875 -0.203125 0.21875 -0.296875q0.171875 -0.109375 0.4375 -0.15625q0.265625 -0.0625 0.671875 -0.0625zm10.765625 -20.045532q2.8125 0 5.140625 0.453125q2.3125 0.4375 3.984375 1.46875q1.671875 1.015625 2.59375 2.6875q0.90625 1.65625 0.90625 4.09375q0 2.296875 -0.8125 3.875q-0.828125 1.578125 -2.421875 2.546875q-1.59375 0.953125 -3.921875 1.359375q-2.34375 0.40625 -5.359375 0.40625q-2.796875 0 -5.125 -0.453125q-2.328125 -0.453125 -4.0 -1.46875q-1.671875 -1.015625 -2.578125 -2.671875q-0.921875 -1.671875 -0.921875 -4.09375q0 -2.3125 0.828125 -3.890625q0.8125 -1.578125 2.40625 -2.53125q1.59375 -0.96875 3.9375 -1.375q2.328125 -0.40625 5.34375 -0.40625zm0.21875 3.3125q-1.828125 0 -3.28125 0.140625q-1.453125 0.125 -2.5625 0.390625q-1.109375 0.25 -1.90625 0.65625q-0.8125 0.40625 -1.328125 0.96875q-0.53125 0.5625 -0.765625 1.296875q-0.234375 0.71875 -0.234375 1.625q0 1.609375 0.765625 2.609375q0.75 1.0 2.078125 1.578125q1.3125 0.578125 3.09375 0.78125q1.765625 0.203125 3.8125 0.203125q2.734375 0 4.65625 -0.28125q1.90625 -0.28125 3.125 -0.890625q1.203125 -0.609375 1.75 -1.5625q0.546875 -0.953125 0.546875 -2.3125q0 -1.0625 -0.34375 -1.859375q-0.34375 -0.8125 -0.96875 -1.375q-0.640625 -0.578125 -1.515625 -0.953125q-0.890625 -0.390625 -1.96875 -0.609375q-1.078125 -0.234375 -2.328125 -0.3125q-1.265625 -0.09375 -2.625 -0.09375zm2.859375 -23.170532q2.203125 0 3.96875 0.484375q1.765625 0.484375 3.015625 1.421875q1.234375 0.921875 1.90625 2.28125q0.65625 1.359375 0.65625 3.109375q0 0.8125 -0.171875 1.515625q-0.15625 0.6875 -0.5 1.34375q-0.359375 0.65625 -0.90625 1.328125q-0.5625 0.65625 -1.328125 1.390625l2.078125 0q0.140625 0 0.265625 0.078125q0.109375 0.0625 0.171875 0.234375q0.0625 0.171875 0.09375 0.4375q0.046875 0.25 0.046875 0.640625q0 0.375 -0.046875 0.640625q-0.03125 0.265625 -0.09375 0.4375q-0.0625 0.171875 -0.171875 0.234375q-0.125 0.046875 -0.265625 0.046875l-25.21875 0q-0.15625 0 -0.265625 -0.0625q-0.109375 -0.0625 -0.1875 -0.234375q-0.078125 -0.1875 -0.109375 -0.484375q-0.046875 -0.3125 -0.046875 -0.765625q0 -0.46875 0.046875 -0.765625q0.03125 -0.3125 0.109375 -0.46875q0.078125 -0.171875 0.1875 -0.25q0.109375 -0.078125 0.265625 -0.078125l10.171875 0q-0.78125 -0.75 -1.296875 -1.453125q-0.53125 -0.71875 -0.859375 -1.390625q-0.328125 -0.6875 -0.484375 -1.359375q-0.15625 -0.6875 -0.15625 -1.4375q0 -1.859375 0.734375 -3.171875q0.734375 -1.3125 1.984375 -2.125q1.234375 -0.828125 2.890625 -1.203125q1.65625 -0.375 3.515625 -0.375zm0.359375 3.28125q-1.3125 0 -2.53125 0.203125q-1.234375 0.203125 -2.171875 0.6875q-0.953125 0.484375 -1.515625 1.296875q-0.578125 0.8125 -0.578125 2.03125q0 0.59375 0.171875 1.1875q0.171875 0.578125 0.5625 1.1875q0.390625 0.59375 1.015625 1.25q0.625 0.65625 1.5625 1.390625l6.78125 0q1.5625 -1.28125 2.390625 -2.453125q0.8125 -1.171875 0.8125 -2.4375q0 -1.171875 -0.5625 -2.0q-0.5625 -0.828125 -1.5 -1.34375q-0.9375 -0.53125 -2.09375 -0.765625q-1.15625 -0.234375 -2.34375 -0.234375z" fill-rule="nonzero"/><path fill="#4f2980" d="m208.46129 347.3499l204.50395 0l0 36.440918l-204.50395 0z" fill-rule="evenodd"/><path fill="#843360" d="m208.45984 388.57037l282.55118 0l0 36.44095l-282.55118 0z" fill-rule="evenodd"/><path fill="#30349b" d="m208.45946 429.7933l228.50395 0l0 36.44095l-228.50395 0z" fill-rule="evenodd"/><path fill="#000000" fill-opacity="0.0" d="m161.79233 84.114174l120.66141 0l0 47.433067l-120.66141 0z" fill-rule="evenodd"/><path fill="#ffffff" d="m185.29233 118.81979q0 0.234375 -0.015625 0.421875q0 0.171875 -0.046875 0.3125q-0.03125 0.125 -0.09375 0.234375q-0.0625 0.109375 -0.21875 0.265625q-0.140625 0.140625 -0.625 0.453125q-0.46875 0.296875 -1.1875 0.59375q-0.703125 0.28125 -1.625 0.484375q-0.921875 0.203125 -2.015625 0.203125q-1.890625 0 -3.40625 -0.625q-1.515625 -0.625 -2.59375 -1.84375q-1.0625 -1.234375 -1.640625 -3.03125q-0.578125 -1.8125 -0.578125 -4.171875q0 -2.40625 0.609375 -4.28125q0.625 -1.890625 1.75 -3.203125q1.125 -1.3125 2.6875 -2.0q1.5625 -0.6875 3.46875 -0.6875q0.84375 0 1.625 0.15625q0.796875 0.15625 1.46875 0.40625q0.671875 0.234375 1.203125 0.546875q0.53125 0.3125 0.71875 0.515625q0.203125 0.203125 0.265625 0.3125q0.0625 0.09375 0.09375 0.25q0.046875 0.140625 0.0625 0.328125q0.03125 0.1875 0.03125 0.46875q0 0.296875 -0.03125 0.515625q-0.03125 0.203125 -0.09375 0.34375q-0.0625 0.140625 -0.140625 0.203125q-0.078125 0.0625 -0.203125 0.0625q-0.203125 0 -0.578125 -0.28125q-0.375 -0.296875 -0.96875 -0.640625q-0.59375 -0.359375 -1.4375 -0.640625q-0.84375 -0.296875 -2.03125 -0.296875q-1.28125 0 -2.34375 0.515625q-1.046875 0.515625 -1.796875 1.515625q-0.75 1.0 -1.171875 2.453125q-0.40625 1.4375 -0.40625 3.296875q0 1.84375 0.390625 3.265625q0.40625 1.40625 1.140625 2.359375q0.75 0.9375 1.828125 1.4375q1.078125 0.484375 2.4375 0.484375q1.15625 0 2.015625 -0.28125q0.859375 -0.296875 1.453125 -0.640625q0.609375 -0.359375 1.0 -0.640625q0.390625 -0.28125 0.625 -0.28125q0.09375 0 0.171875 0.046875q0.078125 0.046875 0.125 0.171875q0.046875 0.125 0.0625 0.359375q0.015625 0.21875 0.015625 0.5625zm15.658508 -4.53125q0 1.65625 -0.4375 3.046875q-0.421875 1.375 -1.28125 2.375q-0.859375 1.0 -2.15625 1.5625q-1.296875 0.5625 -3.0 0.5625q-1.671875 0 -2.90625 -0.484375q-1.234375 -0.5 -2.0625 -1.4375q-0.8125 -0.953125 -1.21875 -2.296875q-0.40625 -1.34375 -0.40625 -3.046875q0 -1.65625 0.421875 -3.03125q0.4375 -1.390625 1.296875 -2.390625q0.859375 -1.0 2.140625 -1.546875q1.296875 -0.5625 3.015625 -0.5625q1.65625 0 2.890625 0.5q1.234375 0.484375 2.0625 1.4375q0.828125 0.9375 1.234375 2.28125q0.40625 1.34375 0.40625 3.03125zm-2.59375 0.171875q0 -1.09375 -0.203125 -2.0625q-0.203125 -0.984375 -0.671875 -1.703125q-0.46875 -0.734375 -1.265625 -1.15625q-0.78125 -0.4375 -1.96875 -0.4375q-1.09375 0 -1.875 0.390625q-0.78125 0.390625 -1.296875 1.109375q-0.5 0.703125 -0.75 1.671875q-0.25 0.96875 -0.25 2.125q0 1.109375 0.203125 2.09375q0.203125 0.96875 0.671875 1.6875q0.46875 0.71875 1.265625 1.15625q0.796875 0.421875 1.96875 0.421875q1.078125 0 1.875 -0.390625q0.796875 -0.390625 1.296875 -1.09375q0.515625 -0.703125 0.75 -1.671875q0.25 -0.96875 0.25 -2.140625zm14.697632 3.046875q0 1.03125 -0.390625 1.84375q-0.375 0.8125 -1.078125 1.375q-0.703125 0.546875 -1.6875 0.828125q-0.96875 0.28125 -2.125 0.28125q-0.71875 0 -1.375 -0.109375q-0.65625 -0.109375 -1.171875 -0.28125q-0.515625 -0.171875 -0.875 -0.359375q-0.359375 -0.1875 -0.53125 -0.328125q-0.15625 -0.15625 -0.234375 -0.421875q-0.0625 -0.28125 -0.0625 -0.734375q0 -0.296875 0.015625 -0.484375q0.03125 -0.203125 0.078125 -0.3125q0.046875 -0.125 0.125 -0.171875q0.09375 -0.0625 0.1875 -0.0625q0.171875 0 0.484375 0.203125q0.328125 0.203125 0.796875 0.453125q0.484375 0.234375 1.125 0.4375q0.640625 0.203125 1.484375 0.203125q0.625 0 1.125 -0.125q0.515625 -0.140625 0.890625 -0.40625q0.375 -0.265625 0.578125 -0.671875q0.203125 -0.40625 0.203125 -0.953125q0 -0.578125 -0.296875 -0.953125q-0.296875 -0.390625 -0.78125 -0.6875q-0.46875 -0.3125 -1.078125 -0.53125q-0.59375 -0.234375 -1.234375 -0.484375q-0.625 -0.265625 -1.234375 -0.578125q-0.609375 -0.328125 -1.09375 -0.796875q-0.46875 -0.46875 -0.765625 -1.109375q-0.28125 -0.640625 -0.28125 -1.53125q0 -0.796875 0.296875 -1.515625q0.3125 -0.734375 0.921875 -1.28125q0.625 -0.546875 1.53125 -0.875q0.921875 -0.328125 2.15625 -0.328125q0.53125 0 1.0625 0.09375q0.546875 0.078125 0.984375 0.21875q0.4375 0.125 0.734375 0.296875q0.3125 0.15625 0.46875 0.28125q0.15625 0.109375 0.203125 0.203125q0.0625 0.078125 0.078125 0.203125q0.03125 0.109375 0.046875 0.28125q0.03125 0.15625 0.03125 0.390625q0 0.25 -0.03125 0.4375q-0.015625 0.1875 -0.078125 0.3125q-0.046875 0.125 -0.125 0.171875q-0.0625 0.046875 -0.15625 0.046875q-0.140625 0 -0.390625 -0.15625q-0.25 -0.171875 -0.65625 -0.359375q-0.40625 -0.1875 -0.953125 -0.34375q-0.546875 -0.171875 -1.25 -0.171875q-0.625 0 -1.109375 0.15625q-0.484375 0.140625 -0.796875 0.40625q-0.296875 0.25 -0.453125 0.609375q-0.15625 0.359375 -0.15625 0.78125q0 0.578125 0.296875 0.984375q0.296875 0.390625 0.78125 0.6875q0.484375 0.296875 1.09375 0.546875q0.609375 0.234375 1.25 0.5q0.640625 0.25 1.25 0.5625q0.625 0.3125 1.09375 0.765625q0.484375 0.4375 0.78125 1.078125q0.296875 0.625 0.296875 1.484375zm10.192535 2.6875q0 0.4375 -0.0625 0.6875q-0.0625 0.25 -0.1875 0.375q-0.109375 0.125 -0.359375 0.234375q-0.234375 0.09375 -0.546875 0.15625q-0.296875 0.078125 -0.640625 0.109375q-0.34375 0.046875 -0.6875 0.046875q-1.046875 0 -1.796875 -0.265625q-0.75 -0.28125 -1.234375 -0.84375q-0.46875 -0.5625 -0.6875 -1.421875q-0.21875 -0.859375 -0.21875 -2.03125l0 -7.875l-1.890625 0q-0.21875 0 -0.359375 -0.234375q-0.125 -0.234375 -0.125 -0.78125q0 -0.28125 0.03125 -0.46875q0.03125 -0.203125 0.09375 -0.328125q0.0625 -0.125 0.15625 -0.171875q0.109375 -0.0625 0.21875 -0.0625l1.875 0l0 -3.203125q0 -0.109375 0.046875 -0.1875q0.0625 -0.09375 0.203125 -0.15625q0.140625 -0.078125 0.375 -0.109375q0.25 -0.03125 0.59375 -0.03125q0.375 0 0.609375 0.03125q0.25 0.03125 0.375 0.109375q0.140625 0.0625 0.203125 0.15625q0.0625 0.078125 0.0625 0.1875l0 3.203125l3.453125 0q0.125 0 0.203125 0.0625q0.09375 0.046875 0.15625 0.171875q0.078125 0.125 0.109375 0.328125q0.03125 0.1875 0.03125 0.46875q0 0.546875 -0.140625 0.78125q-0.125 0.234375 -0.359375 0.234375l-3.453125 0l0 7.515625q0 1.390625 0.40625 2.109375q0.421875 0.703125 1.484375 0.703125q0.34375 0 0.609375 -0.0625q0.265625 -0.0625 0.46875 -0.140625q0.21875 -0.078125 0.359375 -0.140625q0.15625 -0.078125 0.28125 -0.078125q0.078125 0 0.140625 0.046875q0.0625 0.03125 0.09375 0.140625q0.046875 0.109375 0.078125 0.296875q0.03125 0.171875 0.03125 0.4375z" fill-rule="nonzero"/><path fill="#ea4c8f" d="m208.46126 471.0138l244.7874 0l0 36.440918l-244.7874 0z" fill-rule="evenodd"/><path fill="#4f2980" d="m208.46136 617.15796l271.90552 0l0 36.44098l-271.90552 0z" fill-rule="evenodd"/><path fill="#843360" d="m208.46014 658.3784l321.3543 0l0 36.44098l-321.3543 0z" fill-rule="evenodd"/><path fill="#30349b" d="m208.45892 699.59894l259.65353 0l0 36.440918l-259.65353 0z" fill-rule="evenodd"/><path fill="#ea4c8f" d="m208.46129 740.8194l196.34645 0l0 36.440918l-196.34645 0z" fill-rule="evenodd"/><path fill="#4f2980" d="m208.45898 886.96356l228.50394 0l0 36.44098l-228.50394 0z" fill-rule="evenodd"/><path fill="#843360" d="m208.4567 928.1841l282.55118 0l0 36.440918l-282.55118 0z" fill-rule="evenodd"/><path fill="#30349b" d="m208.4567 969.407l204.50394 0l0 36.44098l-204.50394 0z" fill-rule="evenodd"/><path fill="#ea4c8f" d="m208.45898 1010.62744l178.48819 0l0 36.440918l-178.48819 0z" fill-rule="evenodd"/><path fill="#4f2980" d="m208.4567 1156.7692l321.35434 0l0 36.440918l-321.35434 0z" fill-rule="evenodd"/><path fill="#843360" d="m208.45439 1197.9896l212.7559 0l0 36.44104l-212.7559 0z" fill-rule="evenodd"/><path fill="#30349b" d="m208.45439 1239.2126l178.4882 0l0 36.440918l-178.4882 0z" fill-rule="evenodd"/><path fill="#ea4c8f" d="m208.4567 1280.4331l187.3386 0l0 36.440918l-187.3386 0z" fill-rule="evenodd"/><path fill="#4f2980" d="m111.09811 92.55413l41.22834 0l0 41.07087l-41.22834 0z" fill-rule="evenodd"/><path fill="#843360" d="m111.09752 139.02321l41.228348 0l0 41.070877l-41.228348 0z" fill-rule="evenodd"/><path fill="#30349b" d="m305.67813 92.55413l41.228363 0l0 41.07087l-41.228363 0z" fill-rule="evenodd"/><path fill="#ea4c8f" d="m305.6787 139.02278l41.228363 0l0 41.070877l-41.228363 0z" fill-rule="evenodd"/><path fill="#000000" fill-opacity="0.0" d="m161.79233 127.40896l120.66141 0l0 47.433067l-120.66141 0z" fill-rule="evenodd"/><path fill="#ffffff" d="m184.51108 146.58333q0 0.28125 -0.03125 0.5q-0.03125 0.203125 -0.109375 0.34375q-0.0625 0.125 -0.15625 0.1875q-0.09375 0.046875 -0.21875 0.046875l-5.453125 0l0 16.796875q0 0.125 -0.0625 0.21875q-0.046875 0.078125 -0.203125 0.140625q-0.140625 0.046875 -0.390625 0.078125q-0.25 0.046875 -0.625 0.046875q-0.359375 0 -0.625 -0.046875q-0.25 -0.03125 -0.40625 -0.078125q-0.140625 -0.0625 -0.203125 -0.140625q-0.046875 -0.09375 -0.046875 -0.21875l0 -16.796875l-5.453125 0q-0.125 0 -0.21875 -0.046875q-0.09375 -0.0625 -0.15625 -0.1875q-0.0625 -0.140625 -0.109375 -0.34375q-0.03125 -0.21875 -0.03125 -0.5q0 -0.28125 0.03125 -0.5q0.046875 -0.21875 0.109375 -0.34375q0.0625 -0.140625 0.15625 -0.203125q0.09375 -0.0625 0.21875 -0.0625l13.46875 0q0.125 0 0.21875 0.0625q0.09375 0.0625 0.15625 0.203125q0.078125 0.125 0.109375 0.34375q0.03125 0.21875 0.03125 0.5zm4.9858093 17.890625q0 0.125 -0.0625 0.203125q-0.0625 0.078125 -0.203125 0.140625q-0.125 0.0625 -0.375 0.09375q-0.234375 0.03125 -0.609375 0.03125q-0.359375 0 -0.609375 -0.03125q-0.234375 -0.03125 -0.375 -0.09375q-0.140625 -0.0625 -0.1875 -0.140625q-0.046875 -0.078125 -0.046875 -0.203125l0 -13.46875q0 -0.109375 0.046875 -0.1875q0.046875 -0.09375 0.1875 -0.15625q0.140625 -0.0625 0.375 -0.09375q0.25 -0.03125 0.609375 -0.03125q0.375 0 0.609375 0.03125q0.25 0.03125 0.375 0.09375q0.140625 0.0625 0.203125 0.15625q0.0625 0.078125 0.0625 0.1875l0 13.46875zm0.28125 -18.015625q0 0.859375 -0.328125 1.171875q-0.328125 0.3125 -1.21875 0.3125q-0.859375 0 -1.1875 -0.296875q-0.328125 -0.3125 -0.328125 -1.15625q0 -0.875 0.328125 -1.1875q0.34375 -0.3125 1.21875 -0.3125q0.875 0 1.1875 0.3125q0.328125 0.296875 0.328125 1.15625zm24.269745 18.015625q0 0.125 -0.0625 0.203125q-0.0625 0.078125 -0.203125 0.140625q-0.125 0.0625 -0.375 0.09375q-0.234375 0.03125 -0.59375 0.03125q-0.375 0 -0.625 -0.03125q-0.234375 -0.03125 -0.375 -0.09375q-0.140625 -0.0625 -0.203125 -0.140625q-0.0625 -0.078125 -0.0625 -0.203125l0 -8.1875q0 -0.859375 -0.15625 -1.5625q-0.140625 -0.703125 -0.46875 -1.203125q-0.328125 -0.515625 -0.84375 -0.78125q-0.5 -0.265625 -1.1875 -0.265625q-0.859375 0 -1.71875 0.65625q-0.859375 0.65625 -1.890625 1.921875l0 9.421875q0 0.125 -0.0625 0.203125q-0.0625 0.078125 -0.203125 0.140625q-0.140625 0.0625 -0.375 0.09375q-0.234375 0.03125 -0.59375 0.03125q-0.34375 0 -0.59375 -0.03125q-0.25 -0.03125 -0.390625 -0.09375q-0.140625 -0.0625 -0.203125 -0.140625q-0.046875 -0.078125 -0.046875 -0.203125l0 -8.1875q0 -0.859375 -0.171875 -1.5625q-0.15625 -0.703125 -0.484375 -1.203125q-0.328125 -0.515625 -0.828125 -0.78125q-0.5 -0.265625 -1.1875 -0.265625q-0.859375 0 -1.734375 0.65625q-0.859375 0.65625 -1.875 1.921875l0 9.421875q0 0.125 -0.0625 0.203125q-0.0625 0.078125 -0.203125 0.140625q-0.125 0.0625 -0.375 0.09375q-0.234375 0.03125 -0.609375 0.03125q-0.359375 0 -0.609375 -0.03125q-0.234375 -0.03125 -0.375 -0.09375q-0.140625 -0.0625 -0.1875 -0.140625q-0.046875 -0.078125 -0.046875 -0.203125l0 -13.46875q0 -0.125 0.03125 -0.203125q0.046875 -0.078125 0.1875 -0.140625q0.140625 -0.078125 0.34375 -0.09375q0.203125 -0.03125 0.546875 -0.03125q0.34375 0 0.546875 0.03125q0.21875 0.015625 0.34375 0.09375q0.125 0.0625 0.171875 0.140625q0.046875 0.078125 0.046875 0.203125l0 1.78125q1.140625 -1.28125 2.203125 -1.859375q1.078125 -0.59375 2.171875 -0.59375q0.84375 0 1.5 0.203125q0.671875 0.1875 1.171875 0.546875q0.515625 0.34375 0.875 0.828125q0.359375 0.484375 0.59375 1.078125q0.6875 -0.734375 1.28125 -1.234375q0.609375 -0.515625 1.171875 -0.828125q0.5625 -0.3125 1.09375 -0.453125q0.53125 -0.140625 1.0625 -0.140625q1.3125 0 2.1875 0.453125q0.890625 0.453125 1.4375 1.21875q0.546875 0.765625 0.78125 1.796875q0.234375 1.015625 0.234375 2.15625l0 8.515625zm15.989075 -7.3125q0 0.578125 -0.296875 0.828125q-0.28125 0.25 -0.65625 0.25l-8.828125 0q0 1.109375 0.21875 2.015625q0.234375 0.890625 0.75 1.546875q0.53125 0.640625 1.359375 0.984375q0.84375 0.34375 2.046875 0.34375q0.96875 0 1.71875 -0.15625q0.75 -0.15625 1.296875 -0.34375q0.546875 -0.203125 0.890625 -0.359375q0.359375 -0.15625 0.53125 -0.15625q0.109375 0 0.1875 0.046875q0.078125 0.046875 0.125 0.15625q0.046875 0.109375 0.0625 0.296875q0.03125 0.1875 0.03125 0.453125q0 0.1875 -0.015625 0.34375q-0.015625 0.140625 -0.046875 0.25q-0.015625 0.109375 -0.078125 0.203125q-0.046875 0.09375 -0.125 0.171875q-0.078125 0.078125 -0.484375 0.265625q-0.40625 0.1875 -1.046875 0.375q-0.640625 0.171875 -1.484375 0.3125q-0.84375 0.140625 -1.8125 0.140625q-1.65625 0 -2.90625 -0.453125q-1.25 -0.46875 -2.109375 -1.375q-0.84375 -0.921875 -1.28125 -2.296875q-0.4375 -1.375 -0.4375 -3.203125q0 -1.734375 0.453125 -3.125q0.453125 -1.390625 1.296875 -2.34375q0.84375 -0.96875 2.03125 -1.484375q1.203125 -0.515625 2.6875 -0.515625q1.59375 0 2.703125 0.515625q1.109375 0.5 1.828125 1.359375q0.71875 0.859375 1.046875 2.03125q0.34375 1.15625 0.34375 2.46875l0 0.453125zm-2.484375 -0.734375q0.046875 -1.953125 -0.859375 -3.0625q-0.90625 -1.109375 -2.6875 -1.109375q-0.90625 0 -1.59375 0.34375q-0.6875 0.34375 -1.15625 0.921875q-0.46875 0.5625 -0.71875 1.328125q-0.25 0.75 -0.28125 1.578125l7.296875 0z" fill-rule="nonzero"/><path fill="#000000" fill-opacity="0.0" d="m351.31824 84.114174l178.48822 0l0 47.433067l-178.48822 0z" fill-rule="evenodd"/><path fill="#ffffff" d="m364.4745 121.16354q0 0.125 -0.0625 0.21875q-0.0625 0.078125 -0.21875 0.140625q-0.140625 0.046875 -0.390625 0.078125q-0.25 0.046875 -0.625 0.046875q-0.359375 0 -0.609375 -0.046875q-0.25 -0.03125 -0.40625 -0.078125q-0.15625 -0.0625 -0.21875 -0.140625q-0.046875 -0.09375 -0.046875 -0.21875l0 -18.59375q0 -0.109375 0.0625 -0.203125q0.0625 -0.09375 0.21875 -0.140625q0.171875 -0.0625 0.40625 -0.09375q0.25 -0.03125 0.59375 -0.03125q0.375 0 0.625 0.03125q0.25 0.03125 0.390625 0.09375q0.15625 0.046875 0.21875 0.140625q0.0625 0.09375 0.0625 0.203125l0 18.59375zm16.458313 0.015625q0 0.125 -0.0625 0.203125q-0.0625 0.078125 -0.203125 0.140625q-0.125 0.0625 -0.375 0.09375q-0.234375 0.03125 -0.59375 0.03125q-0.359375 0 -0.609375 -0.03125q-0.234375 -0.03125 -0.375 -0.09375q-0.125 -0.0625 -0.1875 -0.140625q-0.0625 -0.078125 -0.0625 -0.203125l0 -7.890625q0 -1.15625 -0.1875 -1.859375q-0.171875 -0.703125 -0.515625 -1.203125q-0.34375 -0.515625 -0.890625 -0.78125q-0.546875 -0.265625 -1.265625 -0.265625q-0.921875 0 -1.859375 0.65625q-0.921875 0.65625 -1.9375 1.921875l0 9.421875q0 0.125 -0.0625 0.203125q-0.0625 0.078125 -0.203125 0.140625q-0.125 0.0625 -0.375 0.09375q-0.234375 0.03125 -0.609375 0.03125q-0.359375 0 -0.609375 -0.03125q-0.234375 -0.03125 -0.375 -0.09375q-0.140625 -0.0625 -0.1875 -0.140625q-0.046875 -0.078125 -0.046875 -0.203125l0 -13.46875q0 -0.125 0.03125 -0.203125q0.046875 -0.078125 0.1875 -0.140625q0.140625 -0.078125 0.34375 -0.09375q0.203125 -0.03125 0.546875 -0.03125q0.34375 0 0.546875 0.03125q0.21875 0.015625 0.34375 0.09375q0.125 0.0625 0.171875 0.140625q0.046875 0.078125 0.046875 0.203125l0 1.78125q1.140625 -1.28125 2.265625 -1.859375q1.140625 -0.59375 2.296875 -0.59375q1.34375 0 2.265625 0.453125q0.921875 0.453125 1.484375 1.21875q0.5625 0.765625 0.8125 1.796875q0.25 1.015625 0.25 2.453125l0 8.21875zm16.903381 -6.9375q0 1.765625 -0.390625 3.171875q-0.375 1.40625 -1.125 2.390625q-0.734375 0.96875 -1.828125 1.5q-1.09375 0.53125 -2.5 0.53125q-0.59375 0 -1.109375 -0.125q-0.5 -0.109375 -1.0 -0.359375q-0.484375 -0.265625 -0.96875 -0.65625q-0.46875 -0.390625 -1.0 -0.90625l0 6.734375q0 0.125 -0.0625 0.203125q-0.0625 0.09375 -0.203125 0.15625q-0.125 0.0625 -0.375 0.09375q-0.234375 0.03125 -0.609375 0.03125q-0.359375 0 -0.609375 -0.03125q-0.234375 -0.03125 -0.375 -0.09375q-0.140625 -0.0625 -0.1875 -0.15625q-0.046875 -0.078125 -0.046875 -0.203125l0 -18.8125q0 -0.140625 0.03125 -0.21875q0.046875 -0.078125 0.1875 -0.140625q0.140625 -0.0625 0.34375 -0.078125q0.203125 -0.03125 0.515625 -0.03125q0.3125 0 0.515625 0.03125q0.203125 0.015625 0.328125 0.078125q0.140625 0.0625 0.1875 0.140625q0.046875 0.078125 0.046875 0.21875l0 1.8125q0.625 -0.625 1.1875 -1.09375q0.578125 -0.46875 1.140625 -0.765625q0.578125 -0.3125 1.1875 -0.46875q0.609375 -0.15625 1.28125 -0.15625q1.46875 0 2.5 0.578125q1.03125 0.5625 1.671875 1.546875q0.65625 0.984375 0.953125 2.296875q0.3125 1.3125 0.3125 2.78125zm-2.609375 0.28125q0 -1.03125 -0.15625 -2.0q-0.15625 -0.96875 -0.546875 -1.71875q-0.375 -0.75 -1.015625 -1.1875q-0.640625 -0.453125 -1.609375 -0.453125q-0.46875 0 -0.9375 0.140625q-0.46875 0.140625 -0.953125 0.453125q-0.46875 0.296875 -1.0 0.796875q-0.515625 0.5 -1.09375 1.234375l0 5.359375q1.015625 1.25 1.921875 1.90625q0.921875 0.65625 1.921875 0.65625q0.921875 0 1.59375 -0.4375q0.671875 -0.453125 1.078125 -1.203125q0.40625 -0.75 0.59375 -1.671875q0.203125 -0.9375 0.203125 -1.875zm17.856506 6.65625q0 0.125 -0.0625 0.203125q-0.046875 0.078125 -0.1875 0.140625q-0.125 0.0625 -0.34375 0.09375q-0.21875 0.03125 -0.53125 0.03125q-0.34375 0 -0.5625 -0.03125q-0.203125 -0.03125 -0.34375 -0.09375q-0.125 -0.0625 -0.171875 -0.140625q-0.046875 -0.078125 -0.046875 -0.203125l0 -1.78125q-1.140625 1.265625 -2.265625 1.859375q-1.125 0.578125 -2.28125 0.578125q-1.34375 0 -2.265625 -0.4375q-0.921875 -0.453125 -1.5 -1.21875q-0.5625 -0.78125 -0.8125 -1.796875q-0.234375 -1.03125 -0.234375 -2.5l0 -8.171875q0 -0.125 0.046875 -0.203125q0.046875 -0.078125 0.203125 -0.140625q0.15625 -0.078125 0.390625 -0.09375q0.234375 -0.03125 0.59375 -0.03125q0.359375 0 0.59375 0.03125q0.25 0.015625 0.390625 0.09375q0.140625 0.0625 0.203125 0.140625q0.0625 0.078125 0.0625 0.203125l0 7.84375q0 1.1875 0.171875 1.90625q0.171875 0.703125 0.515625 1.203125q0.359375 0.5 0.890625 0.78125q0.546875 0.265625 1.265625 0.265625q0.921875 0 1.84375 -0.65625q0.921875 -0.65625 1.953125 -1.9375l0 -9.40625q0 -0.125 0.046875 -0.203125q0.0625 -0.078125 0.203125 -0.140625q0.15625 -0.078125 0.390625 -0.09375q0.234375 -0.03125 0.609375 -0.03125q0.359375 0 0.59375 0.03125q0.234375 0.015625 0.375 0.09375q0.140625 0.0625 0.203125 0.140625q0.0625 0.078125 0.0625 0.203125l0 13.46875zm11.575256 -0.984375q0 0.4375 -0.0625 0.6875q-0.0625 0.25 -0.1875 0.375q-0.109375 0.125 -0.359375 0.234375q-0.234375 0.09375 -0.546875 0.15625q-0.296875 0.078125 -0.640625 0.109375q-0.34375 0.046875 -0.6875 0.046875q-1.046875 0 -1.796875 -0.265625q-0.75 -0.28125 -1.234375 -0.84375q-0.46875 -0.5625 -0.6875 -1.421875q-0.21875 -0.859375 -0.21875 -2.03125l0 -7.875l-1.890625 0q-0.21875 0 -0.359375 -0.234375q-0.125 -0.234375 -0.125 -0.78125q0 -0.28125 0.03125 -0.46875q0.03125 -0.203125 0.09375 -0.328125q0.0625 -0.125 0.15625 -0.171875q0.109375 -0.0625 0.21875 -0.0625l1.875 0l0 -3.203125q0 -0.109375 0.046875 -0.1875q0.0625 -0.09375 0.203125 -0.15625q0.140625 -0.078125 0.375 -0.109375q0.25 -0.03125 0.59375 -0.03125q0.375 0 0.609375 0.03125q0.25 0.03125 0.375 0.109375q0.140625 0.0625 0.203125 0.15625q0.0625 0.078125 0.0625 0.1875l0 3.203125l3.453125 0q0.125 0 0.203125 0.0625q0.09375 0.046875 0.15625 0.171875q0.078125 0.125 0.109375 0.328125q0.03125 0.1875 0.03125 0.46875q0 0.546875 -0.140625 0.78125q-0.125 0.234375 -0.359375 0.234375l-3.453125 0l0 7.515625q0 1.390625 0.40625 2.109375q0.421875 0.703125 1.484375 0.703125q0.34375 0 0.609375 -0.0625q0.265625 -0.0625 0.46875 -0.140625q0.21875 -0.078125 0.359375 -0.140625q0.15625 -0.078125 0.28125 -0.078125q0.078125 0 0.140625 0.046875q0.0625 0.03125 0.09375 0.140625q0.046875 0.109375 0.078125 0.296875q0.03125 0.171875 0.03125 0.4375zm22.621124 -16.90625q0 0.28125 -0.03125 0.5q-0.03125 0.203125 -0.109375 0.34375q-0.0625 0.125 -0.15625 0.1875q-0.09375 0.046875 -0.21875 0.046875l-5.453125 0l0 16.796875q0 0.125 -0.0625 0.21875q-0.046875 0.078125 -0.203125 0.140625q-0.140625 0.046875 -0.390625 0.078125q-0.25 0.046875 -0.625 0.046875q-0.359375 0 -0.625 -0.046875q-0.25 -0.03125 -0.40625 -0.078125q-0.140625 -0.0625 -0.203125 -0.140625q-0.046875 -0.09375 -0.046875 -0.21875l0 -16.796875l-5.453125 0q-0.125 0 -0.21875 -0.046875q-0.09375 -0.0625 -0.15625 -0.1875q-0.0625 -0.140625 -0.109375 -0.34375q-0.03125 -0.21875 -0.03125 -0.5q0 -0.28125 0.03125 -0.5q0.046875 -0.21875 0.109375 -0.34375q0.0625 -0.140625 0.15625 -0.203125q0.09375 -0.0625 0.21875 -0.0625l13.46875 0q0.125 0 0.21875 0.0625q0.09375 0.0625 0.15625 0.203125q0.078125 0.125 0.109375 0.34375q0.03125 0.21875 0.03125 0.5zm12.307404 11.0q0 1.65625 -0.4375 3.046875q-0.421875 1.375 -1.28125 2.375q-0.859375 1.0 -2.15625 1.5625q-1.296875 0.5625 -3.0 0.5625q-1.671875 0 -2.90625 -0.484375q-1.234375 -0.5 -2.0625 -1.4375q-0.8125 -0.953125 -1.21875 -2.296875q-0.40625 -1.34375 -0.40625 -3.046875q0 -1.65625 0.421875 -3.03125q0.4375 -1.390625 1.296875 -2.390625q0.859375 -1.0 2.140625 -1.546875q1.296875 -0.5625 3.015625 -0.5625q1.65625 0 2.890625 0.5q1.234375 0.484375 2.0625 1.4375q0.828125 0.9375 1.234375 2.28125q0.40625 1.34375 0.40625 3.03125zm-2.59375 0.171875q0 -1.09375 -0.203125 -2.0625q-0.203125 -0.984375 -0.671875 -1.703125q-0.46875 -0.734375 -1.265625 -1.15625q-0.78125 -0.4375 -1.96875 -0.4375q-1.09375 0 -1.875 0.390625q-0.78125 0.390625 -1.296875 1.109375q-0.5 0.703125 -0.75 1.671875q-0.25 0.96875 -0.25 2.125q0 1.109375 0.203125 2.09375q0.203125 0.96875 0.671875 1.6875q0.46875 0.71875 1.265625 1.15625q0.796875 0.421875 1.96875 0.421875q1.078125 0 1.875 -0.390625q0.796875 -0.390625 1.296875 -1.09375q0.515625 -0.703125 0.75 -1.671875q0.25 -0.96875 0.25 -2.140625zm17.307007 6.703125q0 0.125 -0.0625 0.21875q-0.0625 0.078125 -0.203125 0.140625q-0.140625 0.0625 -0.40625 0.09375q-0.25 0.03125 -0.640625 0.03125q-0.40625 0 -0.671875 -0.03125q-0.25 -0.015625 -0.4375 -0.0625q-0.171875 -0.0625 -0.296875 -0.15625q-0.109375 -0.09375 -0.1875 -0.234375l-5.6875 -7.453125l0 7.46875q0 0.125 -0.0625 0.203125q-0.0625 0.078125 -0.203125 0.140625q-0.125 0.0625 -0.375 0.09375q-0.234375 0.03125 -0.609375 0.03125q-0.359375 0 -0.609375 -0.03125q-0.234375 -0.03125 -0.375 -0.09375q-0.140625 -0.0625 -0.1875 -0.140625q-0.046875 -0.078125 -0.046875 -0.203125l0 -20.0q0 -0.125 0.046875 -0.203125q0.046875 -0.09375 0.1875 -0.15625q0.140625 -0.0625 0.375 -0.09375q0.25 -0.03125 0.609375 -0.03125q0.375 0 0.609375 0.03125q0.25 0.03125 0.375 0.09375q0.140625 0.0625 0.203125 0.15625q0.0625 0.078125 0.0625 0.203125l0 12.1875l5.078125 -5.59375q0.125 -0.15625 0.25 -0.25q0.140625 -0.09375 0.328125 -0.15625q0.1875 -0.078125 0.4375 -0.09375q0.265625 -0.03125 0.625 -0.03125q0.375 0 0.625 0.03125q0.25 0.015625 0.40625 0.078125q0.15625 0.046875 0.21875 0.125q0.078125 0.078125 0.078125 0.21875q0 0.171875 -0.09375 0.359375q-0.09375 0.171875 -0.328125 0.421875l-4.875 4.875l5.484375 7.109375q0.1875 0.25 0.265625 0.40625q0.09375 0.15625 0.09375 0.296875zm13.369629 -7.296875q0 0.578125 -0.296875 0.828125q-0.28125 0.25 -0.65625 0.25l-8.828125 0q0 1.109375 0.21875 2.015625q0.234375 0.890625 0.75 1.546875q0.53125 0.640625 1.359375 0.984375q0.84375 0.34375 2.046875 0.34375q0.96875 0 1.71875 -0.15625q0.75 -0.15625 1.296875 -0.34375q0.546875 -0.203125 0.890625 -0.359375q0.359375 -0.15625 0.53125 -0.15625q0.109375 0 0.1875 0.046875q0.078125 0.046875 0.125 0.15625q0.046875 0.109375 0.0625 0.296875q0.03125 0.1875 0.03125 0.453125q0 0.1875 -0.015625 0.34375q-0.015625 0.140625 -0.046875 0.25q-0.015625 0.109375 -0.078125 0.203125q-0.046875 0.09375 -0.125 0.171875q-0.078125 0.078125 -0.484375 0.265625q-0.40625 0.1875 -1.046875 0.375q-0.640625 0.171875 -1.484375 0.3125q-0.84375 0.140625 -1.8125 0.140625q-1.65625 0 -2.90625 -0.453125q-1.25 -0.46875 -2.109375 -1.375q-0.84375 -0.921875 -1.28125 -2.296875q-0.4375 -1.375 -0.4375 -3.203125q0 -1.734375 0.453125 -3.125q0.453125 -1.390625 1.296875 -2.34375q0.84375 -0.96875 2.03125 -1.484375q1.203125 -0.515625 2.6875 -0.515625q1.59375 0 2.703125 0.515625q1.109375 0.5 1.828125 1.359375q0.71875 0.859375 1.046875 2.03125q0.34375 1.15625 0.34375 2.46875l0 0.453125zm-2.484375 -0.734375q0.046875 -1.953125 -0.859375 -3.0625q-0.90625 -1.109375 -2.6875 -1.109375q-0.90625 0 -1.59375 0.34375q-0.6875 0.34375 -1.15625 0.921875q-0.46875 0.5625 -0.71875 1.328125q-0.25 0.75 -0.28125 1.578125l7.296875 0zm17.847015 8.046875q0 0.125 -0.0625 0.203125q-0.0625 0.078125 -0.203125 0.140625q-0.125 0.0625 -0.375 0.09375q-0.234375 0.03125 -0.59375 0.03125q-0.359375 0 -0.609375 -0.03125q-0.234375 -0.03125 -0.375 -0.09375q-0.125 -0.0625 -0.1875 -0.140625q-0.0625 -0.078125 -0.0625 -0.203125l0 -7.890625q0 -1.15625 -0.1875 -1.859375q-0.171875 -0.703125 -0.515625 -1.203125q-0.34375 -0.515625 -0.890625 -0.78125q-0.546875 -0.265625 -1.265625 -0.265625q-0.921875 0 -1.859375 0.65625q-0.921875 0.65625 -1.9375 1.921875l0 9.421875q0 0.125 -0.0625 0.203125q-0.0625 0.078125 -0.203125 0.140625q-0.125 0.0625 -0.375 0.09375q-0.234375 0.03125 -0.609375 0.03125q-0.359375 0 -0.609375 -0.03125q-0.234375 -0.03125 -0.375 -0.09375q-0.140625 -0.0625 -0.1875 -0.140625q-0.046875 -0.078125 -0.046875 -0.203125l0 -13.46875q0 -0.125 0.03125 -0.203125q0.046875 -0.078125 0.1875 -0.140625q0.140625 -0.078125 0.34375 -0.09375q0.203125 -0.03125 0.546875 -0.03125q0.34375 0 0.546875 0.03125q0.21875 0.015625 0.34375 0.09375q0.125 0.0625 0.171875 0.140625q0.046875 0.078125 0.046875 0.203125l0 1.78125q1.140625 -1.28125 2.265625 -1.859375q1.140625 -0.59375 2.296875 -0.59375q1.34375 0 2.265625 0.453125q0.921875 0.453125 1.484375 1.21875q0.5625 0.765625 0.8125 1.796875q0.25 1.015625 0.25 2.453125l0 8.21875zm12.965912 -3.671875q0 1.03125 -0.390625 1.84375q-0.375 0.8125 -1.078125 1.375q-0.703125 0.546875 -1.6875 0.828125q-0.9687805 0.28125 -2.1250305 0.28125q-0.71875 0 -1.375 -0.109375q-0.65625 -0.109375 -1.171875 -0.28125q-0.515625 -0.171875 -0.875 -0.359375q-0.359375 -0.1875 -0.53125 -0.328125q-0.15625 -0.15625 -0.234375 -0.421875q-0.0625 -0.28125 -0.0625 -0.734375q0 -0.296875 0.015625 -0.484375q0.03125 -0.203125 0.078125 -0.3125q0.046875 -0.125 0.125 -0.171875q0.09375 -0.0625 0.1875 -0.0625q0.171875 0 0.484375 0.203125q0.328125 0.203125 0.796875 0.453125q0.484375 0.234375 1.125 0.4375q0.640625 0.203125 1.484375 0.203125q0.625 0 1.125 -0.125q0.5156555 -0.140625 0.8906555 -0.40625q0.375 -0.265625 0.578125 -0.671875q0.203125 -0.40625 0.203125 -0.953125q0 -0.578125 -0.296875 -0.953125q-0.296875 -0.390625 -0.78125 -0.6875q-0.46875 -0.3125 -1.0781555 -0.53125q-0.59375 -0.234375 -1.234375 -0.484375q-0.625 -0.265625 -1.234375 -0.578125q-0.609375 -0.328125 -1.09375 -0.796875q-0.46875 -0.46875 -0.765625 -1.109375q-0.28125 -0.640625 -0.28125 -1.53125q0 -0.796875 0.296875 -1.515625q0.3125 -0.734375 0.921875 -1.28125q0.625 -0.546875 1.53125 -0.875q0.921875 -0.328125 2.15625 -0.328125q0.5312805 0 1.0625305 0.09375q0.546875 0.078125 0.984375 0.21875q0.4375 0.125 0.734375 0.296875q0.3125 0.15625 0.46875 0.28125q0.15625 0.109375 0.203125 0.203125q0.0625 0.078125 0.078125 0.203125q0.03125 0.109375 0.046875 0.28125q0.03125 0.15625 0.03125 0.390625q0 0.25 -0.03125 0.4375q-0.015625 0.1875 -0.078125 0.3125q-0.046875 0.125 -0.125 0.171875q-0.0625 0.046875 -0.15625 0.046875q-0.140625 0 -0.390625 -0.15625q-0.25 -0.171875 -0.65625 -0.359375q-0.40625 -0.1875 -0.953125 -0.34375q-0.546875 -0.171875 -1.2500305 -0.171875q-0.625 0 -1.109375 0.15625q-0.484375 0.140625 -0.796875 0.40625q-0.296875 0.25 -0.453125 0.609375q-0.15625 0.359375 -0.15625 0.78125q0 0.578125 0.296875 0.984375q0.296875 0.390625 0.78125 0.6875q0.484375 0.296875 1.09375 0.546875q0.609375 0.234375 1.2500305 0.5q0.640625 0.25 1.25 0.5625q0.625 0.3125 1.09375 0.765625q0.484375 0.4375 0.78125 1.078125q0.296875 0.625 0.296875 1.484375z" fill-rule="nonzero"/><path fill="#000000" fill-opacity="0.0" d="m351.31824 127.40896l212.75592 0l0 47.433067l-212.75592 0z" fill-rule="evenodd"/><path fill="#ffffff" d="m378.1151 154.9427q0 2.34375 -0.5625 4.234375q-0.546875 1.890625 -1.640625 3.21875q-1.09375 1.3125 -2.765625 2.03125q-1.65625 0.703125 -3.875 0.703125q-2.1875 0 -3.78125 -0.640625q-1.59375 -0.65625 -2.640625 -1.890625q-1.03125 -1.25 -1.546875 -3.09375q-0.5 -1.84375 -0.5 -4.234375q0 -2.296875 0.546875 -4.15625q0.5625 -1.875 1.671875 -3.1875q1.109375 -1.3125 2.765625 -2.015625q1.65625 -0.71875 3.875 -0.71875q2.140625 0 3.71875 0.65625q1.59375 0.640625 2.640625 1.875q1.0625 1.234375 1.578125 3.046875q0.515625 1.8125 0.515625 4.171875zm-2.703125 0.171875q0 -1.640625 -0.296875 -3.046875q-0.296875 -1.421875 -0.984375 -2.453125q-0.671875 -1.046875 -1.8125 -1.625q-1.125 -0.59375 -2.8125 -0.59375q-1.671875 0 -2.8125 0.625q-1.140625 0.625 -1.859375 1.6875q-0.703125 1.046875 -1.015625 2.453125q-0.296875 1.390625 -0.296875 2.921875q0 1.71875 0.28125 3.15625q0.296875 1.4375 0.96875 2.484375q0.671875 1.03125 1.796875 1.609375q1.125 0.5625 2.84375 0.5625q1.6875 0 2.828125 -0.625q1.15625 -0.625 1.859375 -1.6875q0.71875 -1.078125 1.015625 -2.484375q0.296875 -1.40625 0.296875 -2.984375zm18.032166 9.359375q0 0.125 -0.0625 0.203125q-0.046875 0.078125 -0.1875 0.140625q-0.125 0.0625 -0.34375 0.09375q-0.21875 0.03125 -0.53125 0.03125q-0.34375 0 -0.5625 -0.03125q-0.203125 -0.03125 -0.34375 -0.09375q-0.125 -0.0625 -0.171875 -0.140625q-0.046875 -0.078125 -0.046875 -0.203125l0 -1.78125q-1.140625 1.265625 -2.265625 1.859375q-1.125 0.578125 -2.28125 0.578125q-1.34375 0 -2.265625 -0.4375q-0.921875 -0.453125 -1.5 -1.21875q-0.5625 -0.78125 -0.8125 -1.796875q-0.234375 -1.03125 -0.234375 -2.5l0 -8.171875q0 -0.125 0.046875 -0.203125q0.046875 -0.078125 0.203125 -0.140625q0.15625 -0.078125 0.390625 -0.09375q0.234375 -0.03125 0.59375 -0.03125q0.359375 0 0.59375 0.03125q0.25 0.015625 0.390625 0.09375q0.140625 0.0625 0.203125 0.140625q0.0625 0.078125 0.0625 0.203125l0 7.84375q0 1.1875 0.171875 1.90625q0.171875 0.703125 0.515625 1.203125q0.359375 0.5 0.890625 0.78125q0.546875 0.265625 1.265625 0.265625q0.921875 0 1.84375 -0.65625q0.921875 -0.65625 1.953125 -1.9375l0 -9.40625q0 -0.125 0.046875 -0.203125q0.0625 -0.078125 0.203125 -0.140625q0.15625 -0.078125 0.390625 -0.09375q0.234375 -0.03125 0.609375 -0.03125q0.359375 0 0.59375 0.03125q0.234375 0.015625 0.375 0.09375q0.140625 0.0625 0.203125 0.140625q0.0625 0.078125 0.0625 0.203125l0 13.46875zm11.575256 -0.984375q0 0.4375 -0.0625 0.6875q-0.0625 0.25 -0.1875 0.375q-0.109375 0.125 -0.359375 0.234375q-0.234375 0.09375 -0.546875 0.15625q-0.296875 0.078125 -0.640625 0.109375q-0.34375 0.046875 -0.6875 0.046875q-1.046875 0 -1.796875 -0.265625q-0.75 -0.28125 -1.234375 -0.84375q-0.46875 -0.5625 -0.6875 -1.421875q-0.21875 -0.859375 -0.21875 -2.03125l0 -7.875l-1.890625 0q-0.21875 0 -0.359375 -0.234375q-0.125 -0.234375 -0.125 -0.78125q0 -0.28125 0.03125 -0.46875q0.03125 -0.203125 0.09375 -0.328125q0.0625 -0.125 0.15625 -0.171875q0.109375 -0.0625 0.21875 -0.0625l1.875 0l0 -3.203125q0 -0.109375 0.046875 -0.1875q0.0625 -0.09375 0.203125 -0.15625q0.140625 -0.078125 0.375 -0.109375q0.25 -0.03125 0.59375 -0.03125q0.375 0 0.609375 0.03125q0.25 0.03125 0.375 0.109375q0.140625 0.0625 0.203125 0.15625q0.0625 0.078125 0.0625 0.1875l0 3.203125l3.453125 0q0.125 0 0.203125 0.0625q0.09375 0.046875 0.15625 0.171875q0.078125 0.125 0.109375 0.328125q0.03125 0.1875 0.03125 0.46875q0 0.546875 -0.140625 0.78125q-0.125 0.234375 -0.359375 0.234375l-3.453125 0l0 7.515625q0 1.390625 0.40625 2.109375q0.421875 0.703125 1.484375 0.703125q0.34375 0 0.609375 -0.0625q0.265625 -0.0625 0.46875 -0.140625q0.21875 -0.078125 0.359375 -0.140625q0.15625 -0.078125 0.28125 -0.078125q0.078125 0 0.140625 0.046875q0.0625 0.03125 0.09375 0.140625q0.046875 0.109375 0.078125 0.296875q0.03125 0.171875 0.03125 0.4375zm15.659271 -5.953125q0 1.765625 -0.390625 3.171875q-0.375 1.40625 -1.125 2.390625q-0.734375 0.96875 -1.828125 1.5q-1.09375 0.53125 -2.5 0.53125q-0.59375 0 -1.109375 -0.125q-0.5 -0.109375 -1.0 -0.359375q-0.484375 -0.265625 -0.96875 -0.65625q-0.46875 -0.390625 -1.0 -0.90625l0 6.734375q0 0.125 -0.0625 0.203125q-0.0625 0.09375 -0.203125 0.15625q-0.125 0.0625 -0.375 0.09375q-0.234375 0.03125 -0.609375 0.03125q-0.359375 0 -0.609375 -0.03125q-0.234375 -0.03125 -0.375 -0.09375q-0.140625 -0.0625 -0.1875 -0.15625q-0.046875 -0.078125 -0.046875 -0.203125l0 -18.8125q0 -0.140625 0.03125 -0.21875q0.046875 -0.078125 0.1875 -0.140625q0.140625 -0.0625 0.34375 -0.078125q0.203125 -0.03125 0.515625 -0.03125q0.3125 0 0.515625 0.03125q0.203125 0.015625 0.328125 0.078125q0.140625 0.0625 0.1875 0.140625q0.046875 0.078125 0.046875 0.21875l0 1.8125q0.625 -0.625 1.1875 -1.09375q0.578125 -0.46875 1.140625 -0.765625q0.578125 -0.3125 1.1875 -0.46875q0.609375 -0.15625 1.28125 -0.15625q1.46875 0 2.5 0.578125q1.03125 0.5625 1.671875 1.546875q0.65625 0.984375 0.953125 2.296875q0.3125 1.3125 0.3125 2.78125zm-2.609375 0.28125q0 -1.03125 -0.15625 -2.0q-0.15625 -0.96875 -0.546875 -1.71875q-0.375 -0.75 -1.015625 -1.1875q-0.640625 -0.453125 -1.609375 -0.453125q-0.46875 0 -0.9375 0.140625q-0.46875 0.140625 -0.953125 0.453125q-0.46875 0.296875 -1.0 0.796875q-0.515625 0.5 -1.09375 1.234375l0 5.359375q1.015625 1.25 1.921875 1.90625q0.921875 0.65625 1.921875 0.65625q0.921875 0 1.59375 -0.4375q0.671875 -0.453125 1.078125 -1.203125q0.40625 -0.75 0.59375 -1.671875q0.203125 -0.9375 0.203125 -1.875zm17.856506 6.65625q0 0.125 -0.0625 0.203125q-0.046875 0.078125 -0.1875 0.140625q-0.125 0.0625 -0.34375 0.09375q-0.21875 0.03125 -0.53125 0.03125q-0.34375 0 -0.5625 -0.03125q-0.203125 -0.03125 -0.34375 -0.09375q-0.125 -0.0625 -0.171875 -0.140625q-0.046875 -0.078125 -0.046875 -0.203125l0 -1.78125q-1.140625 1.265625 -2.265625 1.859375q-1.125 0.578125 -2.28125 0.578125q-1.34375 0 -2.265625 -0.4375q-0.921875 -0.453125 -1.5 -1.21875q-0.5625 -0.78125 -0.8125 -1.796875q-0.234375 -1.03125 -0.234375 -2.5l0 -8.171875q0 -0.125 0.046875 -0.203125q0.046875 -0.078125 0.203125 -0.140625q0.15625 -0.078125 0.390625 -0.09375q0.234375 -0.03125 0.59375 -0.03125q0.359375 0 0.59375 0.03125q0.25 0.015625 0.390625 0.09375q0.140625 0.0625 0.203125 0.140625q0.0625 0.078125 0.0625 0.203125l0 7.84375q0 1.1875 0.171875 1.90625q0.171875 0.703125 0.515625 1.203125q0.359375 0.5 0.890625 0.78125q0.546875 0.265625 1.265625 0.265625q0.921875 0 1.84375 -0.65625q0.921875 -0.65625 1.953125 -1.9375l0 -9.40625q0 -0.125 0.046875 -0.203125q0.0625 -0.078125 0.203125 -0.140625q0.15625 -0.078125 0.390625 -0.09375q0.234375 -0.03125 0.609375 -0.03125q0.359375 0 0.59375 0.03125q0.234375 0.015625 0.375 0.09375q0.140625 0.0625 0.203125 0.140625q0.0625 0.078125 0.0625 0.203125l0 13.46875zm11.575256 -0.984375q0 0.4375 -0.0625 0.6875q-0.0625 0.25 -0.1875 0.375q-0.109375 0.125 -0.359375 0.234375q-0.234375 0.09375 -0.546875 0.15625q-0.296875 0.078125 -0.640625 0.109375q-0.34375 0.046875 -0.6875 0.046875q-1.046875 0 -1.796875 -0.265625q-0.75 -0.28125 -1.234375 -0.84375q-0.46875 -0.5625 -0.6875 -1.421875q-0.21875 -0.859375 -0.21875 -2.03125l0 -7.875l-1.890625 0q-0.21875 0 -0.359375 -0.234375q-0.125 -0.234375 -0.125 -0.78125q0 -0.28125 0.03125 -0.46875q0.03125 -0.203125 0.09375 -0.328125q0.0625 -0.125 0.15625 -0.171875q0.109375 -0.0625 0.21875 -0.0625l1.875 0l0 -3.203125q0 -0.109375 0.046875 -0.1875q0.0625 -0.09375 0.203125 -0.15625q0.140625 -0.078125 0.375 -0.109375q0.25 -0.03125 0.59375 -0.03125q0.375 0 0.609375 0.03125q0.25 0.03125 0.375 0.109375q0.140625 0.0625 0.203125 0.15625q0.0625 0.078125 0.0625 0.1875l0 3.203125l3.453125 0q0.125 0 0.203125 0.0625q0.09375 0.046875 0.15625 0.171875q0.078125 0.125 0.109375 0.328125q0.03125 0.1875 0.03125 0.46875q0 0.546875 -0.140625 0.78125q-0.125 0.234375 -0.359375 0.234375l-3.453125 0l0 7.515625q0 1.390625 0.40625 2.109375q0.421875 0.703125 1.484375 0.703125q0.34375 0 0.609375 -0.0625q0.265625 -0.0625 0.46875 -0.140625q0.21875 -0.078125 0.359375 -0.140625q0.15625 -0.078125 0.28125 -0.078125q0.078125 0 0.140625 0.046875q0.0625 0.03125 0.09375 0.140625q0.046875 0.109375 0.078125 0.296875q0.03125 0.171875 0.03125 0.4375zm22.621124 -16.90625q0 0.28125 -0.03125 0.5q-0.03125 0.203125 -0.109375 0.34375q-0.0625 0.125 -0.15625 0.1875q-0.09375 0.046875 -0.21875 0.046875l-5.453125 0l0 16.796875q0 0.125 -0.0625 0.21875q-0.046875 0.078125 -0.203125 0.140625q-0.140625 0.046875 -0.390625 0.078125q-0.25 0.046875 -0.625 0.046875q-0.359375 0 -0.625 -0.046875q-0.25 -0.03125 -0.40625 -0.078125q-0.140625 -0.0625 -0.203125 -0.140625q-0.046875 -0.09375 -0.046875 -0.21875l0 -16.796875l-5.453125 0q-0.125 0 -0.21875 -0.046875q-0.09375 -0.0625 -0.15625 -0.1875q-0.0625 -0.140625 -0.109375 -0.34375q-0.03125 -0.21875 -0.03125 -0.5q0 -0.28125 0.03125 -0.5q0.046875 -0.21875 0.109375 -0.34375q0.0625 -0.140625 0.15625 -0.203125q0.09375 -0.0625 0.21875 -0.0625l13.46875 0q0.125 0 0.21875 0.0625q0.09375 0.0625 0.15625 0.203125q0.078125 0.125 0.109375 0.34375q0.03125 0.21875 0.03125 0.5zm12.307404 11.0q0 1.65625 -0.4375 3.046875q-0.421875 1.375 -1.28125 2.375q-0.859375 1.0 -2.15625 1.5625q-1.296875 0.5625 -3.0 0.5625q-1.671875 0 -2.90625 -0.484375q-1.234375 -0.5 -2.0625 -1.4375q-0.8125 -0.953125 -1.21875 -2.296875q-0.40625 -1.34375 -0.40625 -3.046875q0 -1.65625 0.421875 -3.03125q0.4375 -1.390625 1.296875 -2.390625q0.859375 -1.0 2.140625 -1.546875q1.296875 -0.5625 3.015625 -0.5625q1.65625 0 2.890625 0.5q1.234375 0.484375 2.0625 1.4375q0.828125 0.9375 1.234375 2.28125q0.40625 1.34375 0.40625 3.03125zm-2.59375 0.171875q0 -1.09375 -0.203125 -2.0625q-0.203125 -0.984375 -0.671875 -1.703125q-0.46875 -0.734375 -1.265625 -1.15625q-0.78125 -0.4375 -1.96875 -0.4375q-1.09375 0 -1.875 0.390625q-0.78125 0.390625 -1.296875 1.109375q-0.5 0.703125 -0.75 1.671875q-0.25 0.96875 -0.25 2.125q0 1.109375 0.203125 2.09375q0.203125 0.96875 0.671875 1.6875q0.46875 0.71875 1.265625 1.15625q0.796875 0.421875 1.96875 0.421875q1.078125 0 1.875 -0.390625q0.796875 -0.390625 1.296875 -1.09375q0.515625 -0.703125 0.75 -1.671875q0.25 -0.96875 0.25 -2.140625zm17.307007 6.703125q0 0.125 -0.0625 0.21875q-0.0625 0.078125 -0.203125 0.140625q-0.140625 0.0625 -0.40625 0.09375q-0.25 0.03125 -0.640625 0.03125q-0.40625 0 -0.671875 -0.03125q-0.25 -0.015625 -0.4375 -0.0625q-0.171875 -0.0625 -0.296875 -0.15625q-0.109375 -0.09375 -0.1875 -0.234375l-5.6875 -7.453125l0 7.46875q0 0.125 -0.0625 0.203125q-0.0625 0.078125 -0.203125 0.140625q-0.125 0.0625 -0.375 0.09375q-0.234375 0.03125 -0.609375 0.03125q-0.359375 0 -0.609375 -0.03125q-0.234375 -0.03125 -0.375 -0.09375q-0.140625 -0.0625 -0.1875 -0.140625q-0.046875 -0.078125 -0.046875 -0.203125l0 -20.0q0 -0.125 0.046875 -0.203125q0.046875 -0.09375 0.1875 -0.15625q0.140625 -0.0625 0.375 -0.09375q0.25 -0.03125 0.609375 -0.03125q0.375 0 0.609375 0.03125q0.25 0.03125 0.375 0.09375q0.140625 0.0625 0.203125 0.15625q0.0625 0.078125 0.0625 0.203125l0 12.1875l5.078125 -5.59375q0.125 -0.15625 0.25 -0.25q0.140625 -0.09375 0.328125 -0.15625q0.1875 -0.078125 0.4375 -0.09375q0.265625 -0.03125 0.625 -0.03125q0.375 0 0.625 0.03125q0.25 0.015625 0.40625 0.078125q0.15625 0.046875 0.21875 0.125q0.078125 0.078125 0.078125 0.21875q0 0.171875 -0.09375 0.359375q-0.09375 0.171875 -0.328125 0.421875l-4.875 4.875l5.484375 7.109375q0.1875 0.25 0.265625 0.40625q0.09375 0.15625 0.09375 0.296875zm13.369629 -7.296875q0 0.578125 -0.296875 0.828125q-0.28125 0.25 -0.65625 0.25l-8.828125 0q0 1.109375 0.21875 2.015625q0.234375 0.890625 0.75 1.546875q0.53125 0.640625 1.359375 0.984375q0.84375 0.34375 2.046875 0.34375q0.96875 0 1.71875 -0.15625q0.75 -0.15625 1.296875 -0.34375q0.546875 -0.203125 0.890625 -0.359375q0.359375 -0.15625 0.53125 -0.15625q0.109375 0 0.1875 0.046875q0.078125 0.046875 0.125 0.15625q0.046875 0.109375 0.0625 0.296875q0.03125 0.1875 0.03125 0.453125q0 0.1875 -0.015625 0.34375q-0.015625 0.140625 -0.046875 0.25q-0.015625 0.109375 -0.078125 0.203125q-0.046875 0.09375 -0.125 0.171875q-0.078125 0.078125 -0.484375 0.265625q-0.40625 0.1875 -1.046875 0.375q-0.640625 0.171875 -1.484375 0.3125q-0.84375 0.140625 -1.8125 0.140625q-1.65625 0 -2.90625 -0.453125q-1.25 -0.46875 -2.109375 -1.375q-0.84375 -0.921875 -1.28125 -2.296875q-0.4375 -1.375 -0.4375 -3.203125q0 -1.734375 0.453125 -3.125q0.453125 -1.390625 1.296875 -2.34375q0.84375 -0.96875 2.03125 -1.484375q1.203125 -0.515625 2.6875 -0.515625q1.59375 0 2.703125 0.515625q1.109375 0.5 1.828125 1.359375q0.71875 0.859375 1.046875 2.03125q0.34375 1.15625 0.34375 2.46875l0 0.453125zm-2.484375 -0.734375q0.046875 -1.953125 -0.859375 -3.0625q-0.90625 -1.109375 -2.6875 -1.109375q-0.90625 0 -1.59375 0.34375q-0.6875 0.34375 -1.15625 0.921875q-0.46875 0.5625 -0.71875 1.328125q-0.25 0.75 -0.28125 1.578125l7.296875 0zm17.847015 8.046875q0 0.125 -0.0625 0.203125q-0.0625 0.078125 -0.203125 0.140625q-0.125 0.0625 -0.375 0.09375q-0.234375 0.03125 -0.59375 0.03125q-0.359375 0 -0.609375 -0.03125q-0.234375 -0.03125 -0.375 -0.09375q-0.125 -0.0625 -0.1875 -0.140625q-0.0625 -0.078125 -0.0625 -0.203125l0 -7.890625q0 -1.15625 -0.1875 -1.859375q-0.171875 -0.703125 -0.515625 -1.203125q-0.34375 -0.515625 -0.890625 -0.78125q-0.546875 -0.265625 -1.265625 -0.265625q-0.921875 0 -1.859375 0.65625q-0.921875 0.65625 -1.9375 1.921875l0 9.421875q0 0.125 -0.0625 0.203125q-0.0625 0.078125 -0.203125 0.140625q-0.125 0.0625 -0.375 0.09375q-0.234375 0.03125 -0.609375 0.03125q-0.359375 0 -0.609375 -0.03125q-0.234375 -0.03125 -0.375 -0.09375q-0.140625 -0.0625 -0.1875 -0.140625q-0.046875 -0.078125 -0.046875 -0.203125l0 -13.46875q0 -0.125 0.03125 -0.203125q0.046875 -0.078125 0.1875 -0.140625q0.140625 -0.078125 0.34375 -0.09375q0.203125 -0.03125 0.546875 -0.03125q0.34375 0 0.546875 0.03125q0.21875 0.015625 0.34375 0.09375q0.125 0.0625 0.171875 0.140625q0.046875 0.078125 0.046875 0.203125l0 1.78125q1.140625 -1.28125 2.265625 -1.859375q1.140625 -0.59375 2.296875 -0.59375q1.34375 0 2.265625 0.453125q0.921875 0.453125 1.484375 1.21875q0.5625 0.765625 0.8125 1.796875q0.25 1.015625 0.25 2.453125l0 8.21875zm12.965881 -3.671875q0 1.03125 -0.390625 1.84375q-0.375 0.8125 -1.078125 1.375q-0.703125 0.546875 -1.6875 0.828125q-0.96875 0.28125 -2.125 0.28125q-0.71875 0 -1.375 -0.109375q-0.65625 -0.109375 -1.171875 -0.28125q-0.515625 -0.171875 -0.875 -0.359375q-0.359375 -0.1875 -0.53125 -0.328125q-0.15625 -0.15625 -0.234375 -0.421875q-0.0625 -0.28125 -0.0625 -0.734375q0 -0.296875 0.015625 -0.484375q0.03125 -0.203125 0.078125 -0.3125q0.046875 -0.125 0.125 -0.171875q0.09375 -0.0625 0.1875 -0.0625q0.171875 0 0.484375 0.203125q0.328125 0.203125 0.796875 0.453125q0.484375 0.234375 1.125 0.4375q0.640625 0.203125 1.484375 0.203125q0.625 0 1.125 -0.125q0.515625 -0.140625 0.890625 -0.40625q0.375 -0.265625 0.578125 -0.671875q0.203125 -0.40625 0.203125 -0.953125q0 -0.578125 -0.296875 -0.953125q-0.296875 -0.390625 -0.78125 -0.6875q-0.46875 -0.3125 -1.078125 -0.53125q-0.59375 -0.234375 -1.234375 -0.484375q-0.625 -0.265625 -1.234375 -0.578125q-0.609375 -0.328125 -1.09375 -0.796875q-0.46875 -0.46875 -0.765625 -1.109375q-0.28125 -0.640625 -0.28125 -1.53125q0 -0.796875 0.296875 -1.515625q0.3125 -0.734375 0.921875 -1.28125q0.625 -0.546875 1.53125 -0.875q0.921875 -0.328125 2.15625 -0.328125q0.53125 0 1.0625 0.09375q0.546875 0.078125 0.984375 0.21875q0.4375 0.125 0.734375 0.296875q0.3125 0.15625 0.46875 0.28125q0.15625 0.109375 0.203125 0.203125q0.0625 0.078125 0.078125 0.203125q0.03125 0.109375 0.046875 0.28125q0.03125 0.15625 0.03125 0.390625q0 0.25 -0.03125 0.4375q-0.015625 0.1875 -0.078125 0.3125q-0.046875 0.125 -0.125 0.171875q-0.0625 0.046875 -0.15625 0.046875q-0.140625 0 -0.390625 -0.15625q-0.25 -0.171875 -0.65625 -0.359375q-0.40625 -0.1875 -0.953125 -0.34375q-0.546875 -0.171875 -1.25 -0.171875q-0.625 0 -1.109375 0.15625q-0.484375 0.140625 -0.796875 0.40625q-0.296875 0.25 -0.453125 0.609375q-0.15625 0.359375 -0.15625 0.78125q0 0.578125 0.296875 0.984375q0.296875 0.390625 0.78125 0.6875q0.484375 0.296875 1.09375 0.546875q0.609375 0.234375 1.25 0.5q0.640625 0.25 1.25 0.5625q0.625 0.3125 1.09375 0.765625q0.484375 0.4375 0.78125 1.078125q0.296875 0.625 0.296875 1.484375z" fill-rule="nonzero"/></g></svg>